<svg xmlns="http://www.w3.org/2000/svg" xmlns:xlink="http://www.w3.org/1999/xlink" viewBox="0 0 831.65 745.96"><defs><style>.cls-1{fill:#dcdeed;}.cls-2{fill:#cdd1f6;}.cls-3{fill:#b5b9dc;}.cls-4{fill:#b6bade;}.cls-5{fill:none;}.cls-6{fill:#e3e5f5;}.cls-7{isolation:isolate;}.cls-32,.cls-8{opacity:0.25;}.cls-100,.cls-45,.cls-51,.cls-52,.cls-66,.cls-67,.cls-76,.cls-77,.cls-8,.cls-90,.cls-91,.cls-99{mix-blend-mode:hard-light;}.cls-9{fill:url(#linear-gradient);}.cls-10,.cls-45{opacity:0.5;}.cls-11{fill:url(#linear-gradient-2);}.cls-12{opacity:0.8;}.cls-13{fill:url(#linear-gradient-3);}.cls-14,.cls-54,.cls-68,.cls-78{fill:#383838;}.cls-14,.cls-53,.cls-68{opacity:0.2;}.cls-14,.cls-53,.cls-54{mix-blend-mode:multiply;}.cls-15{fill:url(#Degradado_sin_nombre_22);}.cls-16{fill:url(#Degradado_sin_nombre_19);}.cls-17{fill:url(#Degradado_sin_nombre_24);}.cls-18{fill:url(#Degradado_sin_nombre_24-2);}.cls-19{fill:url(#Degradado_sin_nombre_24-3);}.cls-20{fill:url(#Degradado_sin_nombre_24-4);}.cls-21{fill:url(#Degradado_sin_nombre_28);}.cls-22{fill:url(#Degradado_sin_nombre_28-2);}.cls-23{fill:url(#Degradado_sin_nombre_28-3);}.cls-24{fill:url(#Degradado_sin_nombre_28-4);}.cls-25{fill:url(#Degradado_sin_nombre_28-5);}.cls-26{fill:url(#Degradado_sin_nombre_28-6);}.cls-27{fill:url(#Degradado_sin_nombre_28-7);}.cls-28{fill:url(#Degradado_sin_nombre_28-8);}.cls-29{fill:url(#Degradado_sin_nombre_28-9);}.cls-30{fill:url(#Degradado_sin_nombre_28-10);}.cls-31{fill:url(#Degradado_sin_nombre_24-5);}.cls-33{fill:url(#linear-gradient-4);}.cls-34{fill:url(#linear-gradient-5);}.cls-35{fill:url(#linear-gradient-6);}.cls-36{fill:url(#Degradado_sin_nombre_22-2);}.cls-37{fill:url(#Degradado_sin_nombre_22-3);}.cls-38{fill:url(#Degradado_sin_nombre_22-4);}.cls-39{fill:url(#Degradado_sin_nombre_22-5);}.cls-40{fill:url(#Degradado_sin_nombre_28-11);}.cls-41{fill:url(#Degradado_sin_nombre_28-12);}.cls-42{fill:url(#Degradado_sin_nombre_24-6);}.cls-43{fill:#3f2c61;}.cls-44{fill:url(#Degradado_sin_nombre_22-6);}.cls-46{fill:url(#Degradado_sin_nombre_12);}.cls-47{fill:url(#Degradado_sin_nombre_12-2);}.cls-48{fill:url(#Degradado_sin_nombre_12-3);}.cls-49{fill:url(#Degradado_sin_nombre_12-4);}.cls-50{fill:url(#Degradado_sin_nombre_24-7);}.cls-100,.cls-51,.cls-52,.cls-66,.cls-67,.cls-76,.cls-77,.cls-90,.cls-91,.cls-99{opacity:0.1;}.cls-51{fill:url(#Degradado_sin_nombre_45);}.cls-52{fill:url(#Degradado_sin_nombre_45-2);}.cls-55{fill:url(#Degradado_sin_nombre_28-13);}.cls-56{fill:url(#Degradado_sin_nombre_28-14);}.cls-57{fill:url(#Degradado_sin_nombre_24-8);}.cls-58{fill:url(#Degradado_sin_nombre_22-7);}.cls-59{fill:url(#Degradado_sin_nombre_12-5);}.cls-60{fill:url(#Degradado_sin_nombre_12-6);}.cls-61{fill:url(#Degradado_sin_nombre_12-7);}.cls-62{fill:url(#Degradado_sin_nombre_12-8);}.cls-63{fill:url(#Degradado_sin_nombre_38);}.cls-64{fill:url(#Degradado_sin_nombre_24-9);}.cls-65{fill:#fff;}.cls-66{fill:url(#Degradado_sin_nombre_45-3);}.cls-67{fill:url(#Degradado_sin_nombre_45-4);}.cls-69{fill:url(#Degradado_sin_nombre_27);}.cls-70{fill:url(#Degradado_sin_nombre_24-10);}.cls-71{fill:url(#Degradado_sin_nombre_22-8);}.cls-72{fill:url(#Degradado_sin_nombre_12-9);}.cls-73{fill:url(#Degradado_sin_nombre_12-10);}.cls-74{fill:url(#Degradado_sin_nombre_12-11);}.cls-75{fill:url(#Degradado_sin_nombre_12-12);}.cls-76{fill:url(#Degradado_sin_nombre_45-5);}.cls-77{fill:url(#Degradado_sin_nombre_45-6);}.cls-79{fill:url(#Degradado_sin_nombre_22-9);}.cls-80{fill:#45356d;}.cls-81{fill:url(#Degradado_sin_nombre_12-13);}.cls-82{fill:url(#Degradado_sin_nombre_22-10);}.cls-83{fill:url(#Degradado_sin_nombre_12-14);}.cls-84{fill:url(#Degradado_sin_nombre_12-15);}.cls-85{fill:url(#Degradado_sin_nombre_19-2);}.cls-86{fill:url(#Degradado_sin_nombre_12-16);}.cls-87{fill:url(#Degradado_sin_nombre_12-17);}.cls-88{fill:url(#Degradado_sin_nombre_12-18);}.cls-89{fill:url(#Degradado_sin_nombre_12-19);}.cls-90{fill:url(#Degradado_sin_nombre_26);}.cls-91{fill:url(#Degradado_sin_nombre_26-2);}.cls-92{fill:url(#Degradado_sin_nombre_28-15);}.cls-93{fill:url(#Degradado_sin_nombre_24-11);}.cls-94{fill:url(#Degradado_sin_nombre_22-11);}.cls-95{fill:url(#Degradado_sin_nombre_12-20);}.cls-96{fill:url(#Degradado_sin_nombre_12-21);}.cls-97{fill:url(#Degradado_sin_nombre_12-22);}.cls-98{fill:url(#Degradado_sin_nombre_12-23);}.cls-99{fill:url(#Degradado_sin_nombre_45-7);}.cls-100{fill:url(#Degradado_sin_nombre_45-8);}.cls-101{clip-path:url(#clip-path);}.cls-102{clip-path:url(#clip-path-2);}.cls-103{clip-path:url(#clip-path-3);}.cls-104{clip-path:url(#clip-path-4);}.cls-105{clip-path:url(#clip-path-5);}.cls-106{clip-path:url(#clip-path-6);}.cls-107{fill:#f5f5fd;}.cls-108{clip-path:url(#clip-path-7);}.cls-109{clip-path:url(#clip-path-8);}.cls-110{clip-path:url(#clip-path-9);}.cls-111{clip-path:url(#clip-path-10);}.cls-112{clip-path:url(#clip-path-11);}.cls-113{clip-path:url(#clip-path-12);}.cls-114{clip-path:url(#clip-path-13);}.cls-115{fill:#085fd5;}.cls-116{clip-path:url(#clip-path-14);}.cls-117{fill:#c2c6ed;}.cls-118{opacity:0.75;}.cls-119{fill:url(#Degradado_sin_nombre_22-12);}.cls-120{fill:url(#Degradado_sin_nombre_22-13);}.cls-121{fill:url(#Degradado_sin_nombre_22-14);}.cls-122{fill:url(#Degradado_sin_nombre_22-15);}.cls-123{fill:#a5a9d3;}.cls-124{clip-path:url(#clip-path-15);}.cls-125{clip-path:url(#clip-path-16);}.cls-126{clip-path:url(#clip-path-17);}.cls-127{clip-path:url(#clip-path-18);}.cls-128{clip-path:url(#clip-path-19);}.cls-129{clip-path:url(#clip-path-20);}.cls-130{clip-path:url(#clip-path-21);}.cls-131{clip-path:url(#clip-path-22);}.cls-132{fill:url(#Degradado_sin_nombre_22-16);}.cls-133{fill:url(#Degradado_sin_nombre_12-24);}.cls-134{fill:url(#Degradado_sin_nombre_12-25);}.cls-135{fill:url(#Degradado_sin_nombre_12-26);}.cls-136{fill:url(#Degradado_sin_nombre_12-27);}</style><linearGradient id="linear-gradient" y1="503.82" x2="831.65" y2="503.82" gradientUnits="userSpaceOnUse"><stop offset="0" stop-color="#3315ff"/><stop offset="0.15" stop-color="#4320ed"/><stop offset="0.52" stop-color="#6637c6"/><stop offset="0.82" stop-color="#7b45ae"/><stop offset="1" stop-color="#834aa5"/></linearGradient><linearGradient id="linear-gradient-2" x1="116.85" y1="503.81" x2="714.81" y2="503.81" xlink:href="#linear-gradient"/><linearGradient id="linear-gradient-3" x1="230.21" y1="503.81" x2="601.45" y2="503.81" xlink:href="#linear-gradient"/><linearGradient id="Degradado_sin_nombre_22" x1="241.06" y1="502.03" x2="593.58" y2="502.03" gradientUnits="userSpaceOnUse"><stop offset="0" stop-color="#834aa5"/><stop offset="0.21" stop-color="#7e51ae"/><stop offset="0.56" stop-color="#7062c6"/><stop offset="1" stop-color="#5a7fed"/></linearGradient><linearGradient id="Degradado_sin_nombre_19" x1="468.71" y1="434.42" x2="319.28" y2="611.11" gradientUnits="userSpaceOnUse"><stop offset="0" stop-color="#834aa5"/><stop offset="0.22" stop-color="#7e51ae"/><stop offset="0.56" stop-color="#7062c6"/><stop offset="1" stop-color="#5a7fed"/></linearGradient><linearGradient id="Degradado_sin_nombre_24" x1="413.66" y1="350" x2="545.9" y2="350" gradientUnits="userSpaceOnUse"><stop offset="0" stop-color="#becfe3"/><stop offset="0.37" stop-color="#d3deec"/><stop offset="1" stop-color="#fff"/></linearGradient><linearGradient id="Degradado_sin_nombre_24-2" x1="286.4" y1="350" x2="418.5" y2="350" xlink:href="#Degradado_sin_nombre_24"/><linearGradient id="Degradado_sin_nombre_24-3" x1="473.57" y1="445.37" x2="482.52" y2="254.94" xlink:href="#Degradado_sin_nombre_24"/><linearGradient id="Degradado_sin_nombre_24-4" x1="359.81" y1="440.94" x2="350.23" y2="276.07" xlink:href="#Degradado_sin_nombre_24"/><linearGradient id="Degradado_sin_nombre_28" x1="355.1" y1="515.91" x2="412.61" y2="196.41" gradientUnits="userSpaceOnUse"><stop offset="0" stop-color="#fff"/><stop offset="0.63" stop-color="#d3deec"/><stop offset="1" stop-color="#becfe3"/></linearGradient><linearGradient id="Degradado_sin_nombre_28-2" x1="352.29" y1="515.41" x2="409.8" y2="195.9" xlink:href="#Degradado_sin_nombre_28"/><linearGradient id="Degradado_sin_nombre_28-3" x1="350.22" y1="515.03" x2="407.73" y2="195.53" xlink:href="#Degradado_sin_nombre_28"/><linearGradient id="Degradado_sin_nombre_28-4" x1="348.68" y1="514.76" x2="406.19" y2="195.25" xlink:href="#Degradado_sin_nombre_28"/><linearGradient id="Degradado_sin_nombre_28-5" x1="347.53" y1="514.55" x2="405.04" y2="195.05" xlink:href="#Degradado_sin_nombre_28"/><linearGradient id="Degradado_sin_nombre_28-6" x1="420.35" y1="205.94" x2="475.3" y2="505.64" xlink:href="#Degradado_sin_nombre_28"/><linearGradient id="Degradado_sin_nombre_28-7" x1="423.48" y1="205.37" x2="478.44" y2="505.06" xlink:href="#Degradado_sin_nombre_28"/><linearGradient id="Degradado_sin_nombre_28-8" x1="425.83" y1="204.93" x2="480.79" y2="504.63" xlink:href="#Degradado_sin_nombre_28"/><linearGradient id="Degradado_sin_nombre_28-9" x1="427.63" y1="204.61" x2="482.58" y2="504.3" xlink:href="#Degradado_sin_nombre_28"/><linearGradient id="Degradado_sin_nombre_28-10" x1="429" y1="204.35" x2="483.95" y2="504.05" xlink:href="#Degradado_sin_nombre_28"/><linearGradient id="Degradado_sin_nombre_24-5" x1="394.44" y1="130.58" x2="438.27" y2="130.58" xlink:href="#Degradado_sin_nombre_24"/><linearGradient id="linear-gradient-4" x1="273.82" y1="107.64" x2="557.83" y2="107.64" xlink:href="#linear-gradient"/><linearGradient id="linear-gradient-5" x1="321.29" y1="107.64" x2="510.36" y2="107.64" xlink:href="#linear-gradient"/><linearGradient id="linear-gradient-6" x1="364.93" y1="107.64" x2="466.72" y2="107.64" xlink:href="#linear-gradient"/><linearGradient id="Degradado_sin_nombre_22-2" x1="407.83" y1="90.22" x2="427.76" y2="90.22" xlink:href="#Degradado_sin_nombre_22"/><linearGradient id="Degradado_sin_nombre_22-3" x1="364.82" y1="36.68" x2="470.48" y2="36.68" xlink:href="#Degradado_sin_nombre_22"/><linearGradient id="Degradado_sin_nombre_22-4" x1="379.94" y1="53.14" x2="455.45" y2="53.14" xlink:href="#Degradado_sin_nombre_22"/><linearGradient id="Degradado_sin_nombre_22-5" x1="394.64" y1="69.13" x2="440.84" y2="69.13" xlink:href="#Degradado_sin_nombre_22"/><linearGradient id="Degradado_sin_nombre_28-11" x1="563.17" y1="277.24" x2="780.7" y2="277.24" xlink:href="#Degradado_sin_nombre_28"/><linearGradient id="Degradado_sin_nombre_28-12" x1="663.99" y1="376.46" x2="655.9" y2="391.31" xlink:href="#Degradado_sin_nombre_28"/><linearGradient id="Degradado_sin_nombre_24-6" x1="672.09" y1="215.38" x2="665.54" y2="356.96" xlink:href="#Degradado_sin_nombre_24"/><linearGradient id="Degradado_sin_nombre_22-6" x1="567.17" y1="281.97" x2="815.82" y2="241.09" xlink:href="#Degradado_sin_nombre_22"/><linearGradient id="Degradado_sin_nombre_12" x1="-12052.95" y1="307.35" x2="-11965.13" y2="251.46" gradientTransform="matrix(-1, 0, 0, 1, -11372.94, 0)" gradientUnits="userSpaceOnUse"><stop offset="0" stop-color="#ff6396"/><stop offset="1" stop-color="#9ac1ef"/></linearGradient><linearGradient id="Degradado_sin_nombre_12-2" x1="-12079.5" y1="265.63" x2="-11991.67" y2="209.74" xlink:href="#Degradado_sin_nombre_12"/><linearGradient id="Degradado_sin_nombre_12-3" x1="-12071.3" y1="278.51" x2="-11983.48" y2="222.62" xlink:href="#Degradado_sin_nombre_12"/><linearGradient id="Degradado_sin_nombre_12-4" x1="-12063.35" y1="291.01" x2="-11975.52" y2="235.12" xlink:href="#Degradado_sin_nombre_12"/><linearGradient id="Degradado_sin_nombre_24-7" x1="663.17" y1="376.18" x2="655.67" y2="389.95" xlink:href="#Degradado_sin_nombre_24"/><linearGradient id="Degradado_sin_nombre_45" x1="630.74" y1="298.61" x2="664.4" y2="240.56" gradientUnits="userSpaceOnUse"><stop offset="0" stop-color="#3a117f" stop-opacity="0"/><stop offset="1" stop-color="#fff"/></linearGradient><linearGradient id="Degradado_sin_nombre_45-2" x1="707.42" y1="325.88" x2="757.06" y2="289.7" xlink:href="#Degradado_sin_nombre_45"/><linearGradient id="Degradado_sin_nombre_28-13" x1="213.87" y1="329.48" x2="173.51" y2="386.78" xlink:href="#Degradado_sin_nombre_28"/><linearGradient id="Degradado_sin_nombre_28-14" x1="222" y1="315.41" x2="252.39" y2="245.23" xlink:href="#Degradado_sin_nombre_28"/><linearGradient id="Degradado_sin_nombre_24-8" x1="220.21" y1="317.26" x2="250.6" y2="247.07" xlink:href="#Degradado_sin_nombre_24"/><linearGradient id="Degradado_sin_nombre_22-7" x1="201.53" y1="304.69" x2="276.45" y2="260.27" xlink:href="#Degradado_sin_nombre_22"/><linearGradient id="Degradado_sin_nombre_12-5" x1="-11614.77" y1="307.01" x2="-11575.78" y2="282.19" xlink:href="#Degradado_sin_nombre_12"/><linearGradient id="Degradado_sin_nombre_12-6" x1="-11626.55" y1="288.49" x2="-11587.56" y2="263.67" xlink:href="#Degradado_sin_nombre_12"/><linearGradient id="Degradado_sin_nombre_12-7" x1="-11622.92" y1="294.2" x2="-11583.92" y2="269.39" xlink:href="#Degradado_sin_nombre_12"/><linearGradient id="Degradado_sin_nombre_12-8" x1="-11619.38" y1="299.75" x2="-11580.39" y2="274.94" xlink:href="#Degradado_sin_nombre_12"/><linearGradient id="Degradado_sin_nombre_38" x1="212.46" y1="309.94" x2="174" y2="364.54" gradientTransform="translate(1.5 17.25) rotate(0.17)" gradientUnits="userSpaceOnUse"><stop offset="0" stop-color="#becfe3"/><stop offset="0.25" stop-color="#d2ddeb"/><stop offset="0.73" stop-color="#f3f6fa"/><stop offset="1" stop-color="#fff"/></linearGradient><linearGradient id="Degradado_sin_nombre_24-9" x1="175.97" y1="359" x2="165.65" y2="373.65" xlink:href="#Degradado_sin_nombre_24"/><linearGradient id="Degradado_sin_nombre_45-3" x1="179.4" y1="304.81" x2="249.86" y2="263.04" xlink:href="#Degradado_sin_nombre_45"/><linearGradient id="Degradado_sin_nombre_45-4" x1="230.62" y1="328.55" x2="284.11" y2="296.84" xlink:href="#Degradado_sin_nombre_45"/><linearGradient id="Degradado_sin_nombre_27" x1="593.11" y1="627.29" x2="704.2" y2="627.29" gradientUnits="userSpaceOnUse"><stop offset="0" stop-color="#becfe3"/><stop offset="0.18" stop-color="#d3deec"/><stop offset="0.49" stop-color="#fff"/><stop offset="1" stop-color="#c2d1e4"/></linearGradient><linearGradient id="Degradado_sin_nombre_24-10" x1="571.57" y1="642.66" x2="692.68" y2="618.63" xlink:href="#Degradado_sin_nombre_24"/><linearGradient id="Degradado_sin_nombre_22-8" x1="597.53" y1="660.56" x2="715.47" y2="571.88" xlink:href="#Degradado_sin_nombre_22"/><linearGradient id="Degradado_sin_nombre_12-9" x1="-12029.34" y1="655.51" x2="-11963.33" y2="613.5" xlink:href="#Degradado_sin_nombre_12"/><linearGradient id="Degradado_sin_nombre_12-10" x1="-12049.28" y1="624.16" x2="-11983.28" y2="582.16" xlink:href="#Degradado_sin_nombre_12"/><linearGradient id="Degradado_sin_nombre_12-11" x1="-12043.13" y1="633.84" x2="-11977.12" y2="591.83" xlink:href="#Degradado_sin_nombre_12"/><linearGradient id="Degradado_sin_nombre_12-12" x1="-12037.15" y1="643.23" x2="-11971.14" y2="601.23" xlink:href="#Degradado_sin_nombre_12"/><linearGradient id="Degradado_sin_nombre_45-5" x1="595.55" y1="647.38" x2="650.18" y2="594.38" xlink:href="#Degradado_sin_nombre_45"/><linearGradient id="Degradado_sin_nombre_45-6" x1="661.02" y1="694.15" x2="686.44" y2="674.14" xlink:href="#Degradado_sin_nombre_45"/><linearGradient id="Degradado_sin_nombre_22-9" x1="97.03" y1="535.04" x2="132.76" y2="536.3" xlink:href="#Degradado_sin_nombre_22"/><linearGradient id="Degradado_sin_nombre_12-13" x1="288.1" y1="663.51" x2="255.42" y2="564.85" gradientTransform="matrix(1, 0, 0, 1, 0, 0)" xlink:href="#Degradado_sin_nombre_12"/><linearGradient id="Degradado_sin_nombre_22-10" x1="136.42" y1="463.77" x2="123.55" y2="534.16" xlink:href="#Degradado_sin_nombre_22"/><linearGradient id="Degradado_sin_nombre_12-14" x1="266.68" y1="608.42" x2="246.41" y2="683.43" gradientTransform="matrix(1, 0, 0, 1, 0, 0)" xlink:href="#Degradado_sin_nombre_12"/><linearGradient id="Degradado_sin_nombre_12-15" x1="266.68" y1="608.7" x2="246.41" y2="683.71" gradientTransform="matrix(1, 0, 0, 1, 0, 0)" xlink:href="#Degradado_sin_nombre_12"/><linearGradient id="Degradado_sin_nombre_19-2" x1="118.96" y1="605.79" x2="225.71" y2="568.11" xlink:href="#Degradado_sin_nombre_19"/><linearGradient id="Degradado_sin_nombre_12-16" x1="-11571.97" y1="599.88" x2="-11527.72" y2="571.72" xlink:href="#Degradado_sin_nombre_12"/><linearGradient id="Degradado_sin_nombre_12-17" x1="-11585.34" y1="578.86" x2="-11541.09" y2="550.7" xlink:href="#Degradado_sin_nombre_12"/><linearGradient id="Degradado_sin_nombre_12-18" x1="-11581.21" y1="585.35" x2="-11536.96" y2="557.19" xlink:href="#Degradado_sin_nombre_12"/><linearGradient id="Degradado_sin_nombre_12-19" x1="-11577.2" y1="591.65" x2="-11532.95" y2="563.49" xlink:href="#Degradado_sin_nombre_12"/><linearGradient id="Degradado_sin_nombre_26" x1="163" y1="589.33" x2="199.19" y2="563.04" gradientUnits="userSpaceOnUse"><stop offset="0" stop-color="#834aa5" stop-opacity="0"/><stop offset="0.26" stop-color="#a47abd" stop-opacity="0.27"/><stop offset="0.77" stop-color="#e5d9ec" stop-opacity="0.79"/><stop offset="1" stop-color="#fff"/></linearGradient><linearGradient id="Degradado_sin_nombre_26-2" x1="206.73" y1="619.28" x2="235.07" y2="602.21" xlink:href="#Degradado_sin_nombre_26"/><linearGradient id="Degradado_sin_nombre_28-15" x1="384.96" y1="719.02" x2="387.34" y2="606.54" xlink:href="#Degradado_sin_nombre_28"/><linearGradient id="Degradado_sin_nombre_24-11" x1="382.99" y1="718.66" x2="385.34" y2="607.82" xlink:href="#Degradado_sin_nombre_24"/><linearGradient id="Degradado_sin_nombre_22-11" x1="358.93" y1="699.96" x2="413.57" y2="612.28" xlink:href="#Degradado_sin_nombre_22"/><linearGradient id="Degradado_sin_nombre_12-20" x1="-11762.87" y1="677.49" x2="-11729.64" y2="656.35" xlink:href="#Degradado_sin_nombre_12"/><linearGradient id="Degradado_sin_nombre_12-21" x1="-11772.92" y1="661.71" x2="-11739.68" y2="640.56" xlink:href="#Degradado_sin_nombre_12"/><linearGradient id="Degradado_sin_nombre_12-22" x1="-11769.81" y1="666.58" x2="-11736.58" y2="645.43" xlink:href="#Degradado_sin_nombre_12"/><linearGradient id="Degradado_sin_nombre_12-23" x1="-11766.8" y1="671.31" x2="-11733.57" y2="650.17" xlink:href="#Degradado_sin_nombre_12"/><linearGradient id="Degradado_sin_nombre_45-7" x1="347.05" y1="665.87" x2="381.98" y2="641.95" xlink:href="#Degradado_sin_nombre_45"/><linearGradient id="Degradado_sin_nombre_45-8" x1="380.81" y1="713.96" x2="396.55" y2="702.94" xlink:href="#Degradado_sin_nombre_45"/><clipPath id="clip-path"><path class="cls-1" d="M644.35,532.7l1.07-.62a1.86,1.86,0,0,0,.78-1.71l-1.07.62A1.86,1.86,0,0,1,644.35,532.7Z"/></clipPath><clipPath id="clip-path-2"><path class="cls-1" d="M652.82,527.76l1.07-.62a4.55,4.55,0,0,0-1.57-1.66,1.58,1.58,0,0,0-1.57-.16l-1.07.62a1.58,1.58,0,0,1,1.57.16A4.54,4.54,0,0,1,652.82,527.76Z"/></clipPath><clipPath id="clip-path-3"><path class="cls-1" d="M642.42,503.42l1.07-.62a1.59,1.59,0,0,0-1.58-.16l-1.07.62A1.59,1.59,0,0,1,642.42,503.42Z"/></clipPath><clipPath id="clip-path-4"><path class="cls-1" d="M642.54,503.49l1.07-.62-.12-.07-1.07.62Z"/></clipPath><clipPath id="clip-path-5"><path class="cls-1" d="M649.72,518.39l1.07-.62c.87-.5.88-2.12,0-3.63l-1.07.62C650.6,516.27,650.59,517.89,649.72,518.39Z"/></clipPath><clipPath id="clip-path-6"><path class="cls-1" d="M644.23,505.22l1.07-.62a4.57,4.57,0,0,0-1.58-1.66l-.11-.06-1.07.62.11.06A4.56,4.56,0,0,1,644.23,505.22Z"/></clipPath><clipPath id="clip-path-7"><path class="cls-1" d="M664.09,537.92l1.07-.62c.87-.5.87-2.13,0-3.63A4.56,4.56,0,0,0,663.6,532a1.57,1.57,0,0,0-1.57-.16l-1.07.62a1.57,1.57,0,0,1,1.57.16,4.56,4.56,0,0,1,1.58,1.66C665,535.79,665,537.41,664.09,537.92Z"/></clipPath><clipPath id="clip-path-8"><path class="cls-1" d="M656.12,511l-1.07.62a1.87,1.87,0,0,1,1.89.18l1.07-.62A1.87,1.87,0,0,0,656.12,511Z"/></clipPath><clipPath id="clip-path-9"><path class="cls-1" d="M659.58,516.41l1.07-.62a5.85,5.85,0,0,0-2.65-4.6l-1.07.62A5.85,5.85,0,0,1,659.58,516.41Z"/></clipPath><clipPath id="clip-path-10"><path class="cls-2" d="M13,359l-2.41,83.54a3.06,3.06,0,0,0,1.8,2.51,9.61,9.61,0,0,0,8.74,0,3.07,3.07,0,0,0,1.82-2.54L20.37,359a1.86,1.86,0,0,1-1.09,1.53,5.79,5.79,0,0,1-5.24,0A1.86,1.86,0,0,1,13,359Z"/></clipPath><clipPath id="clip-path-11"><path class="cls-2" d="M69.71,330.35,67.31,413.9a3.06,3.06,0,0,0,1.8,2.51,9.61,9.61,0,0,0,8.74,0,3.07,3.07,0,0,0,1.82-2.54l-2.53-83.53A1.86,1.86,0,0,1,76,331.87a5.79,5.79,0,0,1-5.24,0A1.86,1.86,0,0,1,69.71,330.35Z"/></clipPath><clipPath id="clip-path-12"><path class="cls-3" d="M136.94,429.35q0,7.55,0,15.1c0,1.5-1,3-3,4.14l0-15.1C136,432.34,136.94,430.84,136.94,429.35Z"/></clipPath><clipPath id="clip-path-13"><path class="cls-2" d="M5,460.22q0-7.54,0-15.1c0,1.52,1,3,3,4.2l0,15.1C6,463.27,5,461.75,5,460.22Z"/></clipPath><clipPath id="clip-path-14"><path class="cls-2" d="M64.74,473.73l0,15.1a15.89,15.89,0,0,1-14.4,0l0-15.1A15.88,15.88,0,0,0,64.74,473.73Z"/></clipPath><linearGradient id="Degradado_sin_nombre_22-12" x1="35" y1="431.95" x2="98.05" y2="431.95" xlink:href="#Degradado_sin_nombre_22"/><linearGradient id="Degradado_sin_nombre_22-13" x1="65.22" y1="439.81" x2="95.05" y2="439.81" xlink:href="#Degradado_sin_nombre_22"/><linearGradient id="Degradado_sin_nombre_22-14" x1="50.03" y1="435.97" x2="96.93" y2="435.97" xlink:href="#Degradado_sin_nombre_22"/><linearGradient id="Degradado_sin_nombre_22-15" x1="79.37" y1="445.14" x2="99.34" y2="445.14" xlink:href="#Degradado_sin_nombre_22"/><clipPath id="clip-path-15"><path class="cls-4" d="M445.56,712.58l15,8.75c3.42,2,8.84,1.42,14.92-2.09,10.29-5.94,18.64-18.1,18.61-27.11l-15-8.75c0,9-8.32,21.17-18.61,27.11C454.39,714,449,714.56,445.56,712.58Z"/></clipPath><clipPath id="clip-path-16"><path class="cls-5" d="M490.31,668.13l-15-8.75c2.36,1.37,3.77,4,3.78,7.65l15,8.75C494.08,672.09,492.67,669.5,490.31,668.13Z"/></clipPath><clipPath id="clip-path-17"><path class="cls-4" d="M444.49,714.4l15,8.75c-2.64-1.53-4.22-4.46-4.23-8.6l-15-8.75C440.27,709.95,441.85,712.87,444.49,714.4Z"/></clipPath><clipPath id="clip-path-18"><path class="cls-5" d="M491.38,666.3l-15-8.75c-3.7-2.15-9.5-1.58-16,2.17l15,8.75C481.88,664.72,487.67,664.14,491.38,666.3Z"/></clipPath><clipPath id="clip-path-19"><path class="cls-5" d="M475.38,668.47l-15-8.75c-11.12,6.42-20.15,19.75-20.12,29.72l15,8.75C455.23,688.22,464.26,674.89,475.38,668.47Z"/></clipPath><clipPath id="clip-path-20"><path class="cls-2" d="M459,718.87l6-3.5a3,3,0,0,0,1.26-2.76l-6,3.5A3,3,0,0,1,459,718.87Z"/></clipPath><clipPath id="clip-path-21"><path class="cls-6" d="M440,672.05l-6,3.5a3,3,0,0,1,3.07.29l6-3.5A3,3,0,0,0,440,672.05Z"/></clipPath><clipPath id="clip-path-22"><path class="cls-2" d="M460.35,694.27l6-3.5a9.51,9.51,0,0,0-4.3-7.45l-6,3.5A9.51,9.51,0,0,1,460.35,694.27Z"/></clipPath><linearGradient id="Degradado_sin_nombre_22-16" x1="435.39" y1="703.72" x2="457.9" y2="690.53" xlink:href="#Degradado_sin_nombre_22"/><linearGradient id="Degradado_sin_nombre_12-24" x1="-11822.31" y1="705.46" x2="-11806.73" y2="695.54" xlink:href="#Degradado_sin_nombre_12"/><linearGradient id="Degradado_sin_nombre_12-25" x1="-11827.02" y1="698.06" x2="-11811.44" y2="688.14" xlink:href="#Degradado_sin_nombre_12"/><linearGradient id="Degradado_sin_nombre_12-26" x1="-11825.57" y1="700.34" x2="-11809.99" y2="690.43" xlink:href="#Degradado_sin_nombre_12"/><linearGradient id="Degradado_sin_nombre_12-27" x1="-11824.16" y1="702.56" x2="-11808.58" y2="692.65" xlink:href="#Degradado_sin_nombre_12"/></defs><title>Asset 5</title><g class="cls-7"><g id="Layer_2" data-name="Layer 2"><g id="Layer_4" data-name="Layer 4"><g class="cls-8"><path class="cls-9" d="M417.15,746c-106.23,0-212.57-23.42-293.71-70.26C43.94,629.8.09,568.55,0,503.24c-.09-64.87,43.07-125.71,121.54-171.31,161.22-93.69,424.37-93.69,586.64,0,79.54,45.92,123.39,107.17,123.48,172.47.09,64.86-43.08,125.69-121.57,171.3C629.48,722.54,523.38,746,417.15,746Zm-2.68-477.5c-105,0-209.81,23.14-289.47,69.43C48.76,382.21,6.81,440.93,6.9,503.23,7,566,49.6,625.1,126.9,669.73c160.35,92.58,420.42,92.58,579.72,0,76.27-44.32,118.22-103,118.13-165.33-.09-62.73-42.72-121.87-120-166.5h0C624.55,291.62,519.44,268.47,414.47,268.47Z"/></g><g class="cls-10"><path class="cls-11" d="M416.75,679.94c-76,0-152.08-16.75-210.13-50.26-57.83-33.39-89.71-78.23-89.78-126.26-.07-47.72,31.33-92.28,88.42-125.45,115.36-67,303.66-67,419.75,0,57.83,33.39,89.73,78.24,89.8,126.26.07,47.71-31.34,92.26-88.44,125.45C568.69,663.18,492.77,679.94,416.75,679.94Zm-1.89-337.56c-73.3,0-146.49,16.16-202.1,48.48-52.3,30.39-81.06,70.36-81,112.54.06,42.49,29.3,82.75,82.32,113.37,112,64.65,293.57,64.65,404.8,0,52.31-30.39,81.08-70.36,81-112.53-.07-42.49-29.31-82.75-82.34-113.37C561.57,358.54,488.17,342.38,414.86,342.38Z"/></g><g class="cls-12"><path class="cls-13" d="M416.38,616.52c-46.57,0-93.18-10.27-128.74-30.8-37-21.35-57.39-50.53-57.43-82.14,0-31.42,20.06-60.42,56.6-81.66,70.69-41.08,186.07-41.09,257.19,0,37,21.36,57.4,50.53,57.45,82.14,0,31.42-20.06,60.42-56.62,81.67C509.48,606.24,463,616.52,416.38,616.52Zm-1.12-200c-41.89,0-83.71,9.23-115.49,27.7C271.5,460.63,256,481.7,256,503.54c0,22,15.85,43.28,44.54,59.85,64,37,167.78,37,231.34,0,28.27-16.43,43.82-37.5,43.79-59.33,0-22-15.86-43.28-44.56-59.85h0C499.11,425.75,457.15,416.51,415.25,416.51Z"/></g><path class="cls-14" d="M235.36,503.79,415.93,399.46a3.68,3.68,0,0,1,3.69,0L599.3,503.78a3.68,3.68,0,0,1,0,6.37l-180.13,104a3.68,3.68,0,0,1-3.68,0l-180.12-104A3.68,3.68,0,0,1,235.36,503.79Z"/><path class="cls-15" d="M241.06,498.78h0a6,6,0,0,1,3.17-5.3L414.89,401.7a6,6,0,0,1,5.71,0l169.82,91.77a6,6,0,0,1,3.16,5.29h0a6,6,0,0,1-3,5.21L420.33,602.28a6,6,0,0,1-6,0L244.06,504A6,6,0,0,1,241.06,498.78Z"/><path class="cls-16" d="M246.25,492.18,416,394.1a3.46,3.46,0,0,1,3.47,0l168.93,98.08a3.46,3.46,0,0,1,0,6L419,595.95a3.46,3.46,0,0,1-3.46,0L246.25,498.18A3.46,3.46,0,0,1,246.25,492.18Z"/><path class="cls-17" d="M416.15,570.93a2.36,2.36,0,0,1-2.36-2.36l-.13-437.14a2.36,2.36,0,0,1,4.58-.78L545.76,494.24a2.36,2.36,0,0,1-1,2.82L417.32,570.61A2.36,2.36,0,0,1,416.15,570.93Zm2.23-425.64.12,419.21L540.67,494Z"/><path class="cls-18" d="M416.15,570.93a2.36,2.36,0,0,1-1.18-.32L287.57,497.06a2.36,2.36,0,0,1-1-2.82L413.79,130.65a2.36,2.36,0,0,1,4.58.78l.13,437.14a2.36,2.36,0,0,1-2.36,2.36ZM291.62,494l122.16,70.53-.12-419.2Z"/><path class="cls-19" d="M543.41,497.38a2.36,2.36,0,0,1-1.18-.32L415,423.67a2.36,2.36,0,0,1-1.18-2V131.43a2.36,2.36,0,0,1,4.58-.78L545.63,494.24a2.36,2.36,0,0,1-2.22,3.13ZM418.5,420.27l120.58,69.54L418.5,145.3Z"/><path class="cls-20" d="M288.75,497.38a2.36,2.36,0,0,1-2.22-3.13L413.79,130.65a2.36,2.36,0,0,1,4.58.78v290.2a2.36,2.36,0,0,1-1.18,2L289.93,497.06A2.36,2.36,0,0,1,288.75,497.38ZM413.66,145.3,293.08,489.81l120.58-69.54Z"/><polyline class="cls-21" points="415.21 469.59 357.35 480.68 315.55 420.02 314.49 421.9 355.13 481.11 288.76 493.81 288.87 496.62 356.86 483.62 415.27 568.68 416.35 566.26 359.08 483.19 415.6 472.38 415.21 469.59"/><polyline class="cls-22" points="414.88 385.82 371.65 394.84 339.25 352.85 338.26 354.58 369.56 395.27 319.92 405.62 320.09 408.06 371.22 397.43 414.84 454.12 415.83 452.07 373.31 396.99 415.25 388.28 414.88 385.82"/><polyline class="cls-23" points="414.58 312.3 384.27 319.05 360.79 291.75 359.89 293.33 382.3 319.49 347.61 327.25 347.82 329.39 383.89 321.35 414.47 357.05 415.4 355.28 385.86 320.91 414.93 314.44 414.58 312.3"/><polyline class="cls-24" points="414.31 247.21 395.49 251.67 380.49 235.9 379.64 237.37 393.63 252.1 372.38 257.12 372.62 259.01 395.16 253.7 414.15 273.71 415.02 272.15 397.02 253.26 414.64 249.12 414.31 247.21"/><polyline class="cls-25" points="414.08 189.22 405.54 191.34 398.56 184.69 397.77 186.04 403.77 191.78 394.67 194.04 394.94 195.72 405.24 193.18 413.88 201.42 414.68 200.03 407.01 192.74 414.39 190.91 414.08 189.22"/><polyline class="cls-26" points="417.12 469.59 474.98 480.68 516.78 420.02 517.84 421.9 477.2 481.11 543.57 493.81 543.47 496.62 475.47 483.62 417.06 568.68 415.98 566.26 473.25 483.19 416.73 472.38 417.12 469.59"/><polyline class="cls-27" points="417.46 385.82 460.69 394.84 493.09 352.85 494.07 354.58 462.77 395.27 512.41 405.62 512.25 408.06 461.12 397.43 417.5 454.12 416.51 452.07 459.03 396.99 417.08 388.28 417.46 385.82"/><polyline class="cls-28" points="417.76 312.3 448.06 319.05 471.54 291.75 472.45 293.33 450.03 319.49 484.72 327.25 484.51 329.39 448.44 321.35 417.87 357.05 416.94 355.28 446.47 320.91 417.4 314.44 417.76 312.3"/><polyline class="cls-29" points="418.02 247.21 436.84 251.67 451.84 235.9 452.69 237.37 438.7 252.1 459.95 257.12 459.71 259.01 437.18 253.7 418.18 273.71 417.32 272.15 435.31 253.26 417.69 249.12 418.02 247.21"/><polyline class="cls-30" points="418.26 189.22 426.79 191.34 433.77 184.69 434.56 186.04 428.56 191.78 437.66 194.04 437.39 195.72 427.1 193.18 418.46 201.42 417.65 200.03 425.32 192.74 417.94 190.91 418.26 189.22"/><circle class="cls-31" cx="416.35" cy="130.58" r="21.91"/><g class="cls-32"><path class="cls-33" d="M416.28,190.34c-36.28,0-72.59-8-100.3-24-27.15-15.68-42.12-36.59-42.16-58.89s14.71-42.93,41.5-58.5c55.05-32,144.92-32,200.33,0,27.16,15.68,42.14,36.6,42.17,58.9,0,22.15-14.71,42.92-41.52,58.5C488.79,182.34,452.55,190.34,416.28,190.34Zm-.92-163.06c-35.85,0-71.65,7.9-98.85,23.71-26,15.13-40.36,35.18-40.33,56.46s14.58,41.62,41,56.86c54.76,31.62,143.57,31.62,198,0,26-15.14,40.37-35.19,40.34-56.46,0-21.42-14.59-41.62-41-56.86h0C487.1,35.18,451.21,27.27,415.36,27.27Z"/></g><g class="cls-10"><path class="cls-34" d="M416.12,163.33c-24,0-48.09-5.3-66.44-15.89s-28.36-24.73-28.39-39.92,9.91-29.18,28-39.67c36.48-21.2,96-21.2,132.72,0,18.29,10.56,28.37,24.74,28.39,39.92s-9.91,29.17-28,39.66C464.16,158,440.15,163.33,416.12,163.33Zm-.6-106.73c-23.17,0-46.32,5.11-63.9,15.33C335.08,81.54,326,94.17,326,107.51s9.26,26.16,26,35.84c35.41,20.44,92.82,20.44,128,0,16.54-9.61,25.64-22.25,25.62-35.58s-9.27-26.16-26-35.85C461.91,61.71,438.7,56.6,415.52,56.6Z"/></g><g class="cls-12"><path class="cls-35" d="M416,138.55c-12.77,0-25.55-2.81-35.3-8.44-10.14-5.86-15.74-13.85-15.75-22.52s5.5-16.57,15.52-22.39c19.38-11.26,51-11.27,70.52,0C461.12,91,466.71,99,466.72,107.7s-5.5,16.57-15.52,22.39C441.51,135.73,428.75,138.55,416,138.55Zm-.31-54.84c-11.48,0-23,2.53-31.67,7.6-7.75,4.5-12,10.28-12,16.27s4.35,11.87,12.21,16.41c17.55,10.13,46,10.13,63.43,0,7.75-4.5,12-10.28,12-16.27s-4.35-11.87-12.22-16.41h0C438.66,86.24,427.16,83.71,415.67,83.71Z"/></g><path class="cls-36" d="M417.76,78.76c5.51-3.18,10-.63,10,5.7s-4.43,14-9.93,17.21-10,.63-10-5.7,4.43-14,9.93-17.21"/><path class="cls-37" d="M417.57,9.59c20.34-11.74,38.72-12.34,51.59-3.8C471,7,470.9,10.73,468.86,14a9.82,9.82,0,0,1-3.27,3.34,3.37,3.37,0,0,1-3.57.27c-11.08-7.37-26.9-6.87-44.42,3.24s-33.3,27.86-44.29,48a10,10,0,0,1-3.56,3.85,3.64,3.64,0,0,1-3.28.45c-2-.93-2.19-4.47-.33-7.86,12.78-23.35,31.1-43.94,51.44-55.69"/><path class="cls-38" d="M417.63,32.89c14.38-8.3,27.37-8.76,36.52-2.8,1.87,1.22,1.7,4.93-.32,8.19a9.85,9.85,0,0,1-3.29,3.35,3.37,3.37,0,0,1-3.54.29c-7.34-4.79-17.78-4.42-29.33,2.25s-22,18.33-29.25,31.58a9.9,9.9,0,0,1-3.53,3.79,3.65,3.65,0,0,1-3.29.45c-2-.92-2.22-4.43-.37-7.79,9.08-16.48,22-31,36.41-39.3"/><path class="cls-39" d="M417.7,55.52c8.54-4.93,16.28-5.29,21.8-1.89,1.91,1.18,1.76,4.93-.28,8.22a9.79,9.79,0,0,1-3.27,3.33,3.45,3.45,0,0,1-3.53.31c-3.72-2.28-8.93-2-14.68,1.29s-10.95,9.08-14.64,15.64a10,10,0,0,1-3.52,3.76,3.63,3.63,0,0,1-3.28.45c-2.05-.93-2.23-4.49-.33-7.87,5.48-9.75,13.19-18.31,21.74-23.25"/><path class="cls-40" d="M780.7,415.09l-.11-149.73a14,14,0,0,0-7-12.07L570.75,136.16a4.4,4.4,0,0,0-4.94.35h0l-2.64,1.77,1,1.28c0,.14,0,.29,0,.44V293a7.22,7.22,0,0,0,3.62,6.26l204.16,117.4,1.71,2.28,2.91,0a3.72,3.72,0,0,0,.72,0h.06A3.82,3.82,0,0,0,780.7,415.09Z"/><path class="cls-14" d="M656.53,346.43v21.32a5.49,5.49,0,0,1-3,4.9l-26.88,12.81a4.14,4.14,0,0,0-2.42,4.1,2.89,2.89,0,0,0,1.56,2.44l35.33,20.27a6,6,0,0,0,6.89-.63l17.7-15a6.26,6.26,0,0,0,2.21-4.77V370.93Z"/><path class="cls-41" d="M652.64,348.17V368.6a5.26,5.26,0,0,1-2.89,4.7L628,383.41c-.05,2.18-.6,4.07,1.41,5.22l33.86,19.43a5.77,5.77,0,0,0,6.61-.6l15.18-12.88c1.79-1.52,3.9-3.74,3.9-6.08V368.44Z"/><path class="cls-42" d="M771.72,418.41,564.49,299.24a7.22,7.22,0,0,1-3.62-6.26V142.15a4.43,4.43,0,0,1,6.64-3.83L770.38,255.45a14,14,0,0,1,7,12.07l.11,147.57A3.83,3.83,0,0,1,771.72,418.41Z"/><path class="cls-43" d="M567.51,138.31a4.43,4.43,0,0,0-6.64,3.83V271.72l216.58,125-.09-129.24a14,14,0,0,0-7-12.07Z"/><polygon class="cls-44" points="766.43 263.44 569.42 149.75 569.42 267.31 766.52 381.04 766.43 263.44"/><g class="cls-45"><path class="cls-46" d="M664.89,286.81c-5.23-3-9.49-.6-9.5,5.42s4.21,13.33,9.44,16.36,9.49.6,9.5-5.42-4.21-13.33-9.44-16.35"/><path class="cls-47" d="M665.07,221.07c-19.33-11.16-36.8-11.72-49-3.61-1.77,1.18-1.66,4.69.27,7.81a9.33,9.33,0,0,0,3.11,3.17,3.2,3.2,0,0,0,3.4.26c10.53-7,25.57-6.53,42.22,3.08s31.65,26.48,42.1,45.6a9.48,9.48,0,0,0,3.39,3.66,3.46,3.46,0,0,0,3.12.43c1.95-.88,2.08-4.25.31-7.47-12.15-22.19-29.56-41.77-48.89-52.93"/><path class="cls-48" d="M665,243.21c-13.67-7.89-26-8.33-34.71-2.67-1.77,1.16-1.61,4.69.31,7.79a9.37,9.37,0,0,0,3.12,3.18,3.2,3.2,0,0,0,3.36.27c7-4.55,16.9-4.2,27.88,2.14s20.87,17.43,27.8,30a9.41,9.41,0,0,0,3.35,3.61,3.47,3.47,0,0,0,3.13.43c1.93-.87,2.11-4.21.35-7.41C691,264.9,678.67,251.1,665,243.21"/><path class="cls-49" d="M664.95,264.72c-8.12-4.69-15.47-5-20.72-1.79-1.82,1.12-1.67,4.69.27,7.81a9.31,9.31,0,0,0,3.11,3.17,3.28,3.28,0,0,0,3.36.3c3.54-2.17,8.49-1.93,14,1.23s10.4,8.63,13.92,14.87a9.51,9.51,0,0,0,3.34,3.57,3.45,3.45,0,0,0,3.11.43c1.95-.88,2.12-4.27.31-7.48-5.21-9.27-12.54-17.41-20.66-22.09"/></g><path class="cls-50" d="M652.64,349.93v16.51a5.26,5.26,0,0,1-2.89,4.7l-20.19,10.22a2.91,2.91,0,0,0-.13,5.12l33.86,19.43a5.77,5.77,0,0,0,6.61-.6l15.18-12.88a8,8,0,0,0,2.82-6.08V370.21Z"/><polygon class="cls-51" points="569.42 242.49 569.42 267.31 658.33 318.6 750.36 254.16 642.03 191.65 569.42 242.49"/><polygon class="cls-52" points="703.59 344.72 766.46 300.7 766.43 267.56 677.63 329.74 703.59 344.72"/><g class="cls-53"><path class="cls-54" d="M302.38,378l-77.95,45.25a5.63,5.63,0,0,1-5.65,0L96.13,351.92a5.63,5.63,0,0,1,0-9.75l71.59-41.58a5.63,5.63,0,0,1,5.65,0l129,75A1.39,1.39,0,0,1,302.38,378Z"/></g><path class="cls-55" d="M296.72,368.06a3.56,3.56,0,0,0-1.89-3.14L171.89,299.47a5.36,5.36,0,0,0-5.37,0l-66.24,33c-4.57,3.19-2.79,12.29.77,14.35l116.83,67.45a5.36,5.36,0,0,0,5.37,0l71.91-41.79a3.14,3.14,0,0,0,1.56-2.71Z"/><path class="cls-56" d="M169.61,212.18l2.46,78.46a5.9,5.9,0,0,0,3,5.13l116.6,67.32a5.9,5.9,0,0,0,8.86-5.1l.22-78.66a5.9,5.9,0,0,0-3-5.13l-116.6-67.32C177.22,204.61,169.63,207.65,169.61,212.18Z"/><path class="cls-57" d="M169.48,213.39,169.26,292a5.9,5.9,0,0,0,3,5.13l116.6,67.32a5.9,5.9,0,0,0,8.86-5.1l.22-78.66a5.9,5.9,0,0,0-3-5.13l-116.6-67.32A5.9,5.9,0,0,0,169.48,213.39Z"/><polygon class="cls-58" points="175.73 213.02 175.5 291.43 291.42 358.36 291.66 279.95 175.73 213.02"/><g class="cls-45"><path class="cls-59" d="M235.11,297.89c-2.32-1.34-4.21-.26-4.22,2.4a9.24,9.24,0,0,0,4.19,7.26c2.32,1.34,4.21.26,4.22-2.4a9.24,9.24,0,0,0-4.19-7.26"/><path class="cls-60" d="M235.19,268.7c-8.58-5-16.34-5.21-21.77-1.6-.79.52-.74,2.08.12,3.47a4.14,4.14,0,0,0,1.38,1.41,1.42,1.42,0,0,0,1.51.11c4.67-3.11,11.35-2.9,18.74,1.37s14.05,11.75,18.69,20.24a4.21,4.21,0,0,0,1.5,1.62,1.54,1.54,0,0,0,1.39.19c.86-.39.92-1.89.14-3.32-5.39-9.85-13.12-18.54-21.71-23.5"/><path class="cls-61" d="M235.17,278.53c-6.07-3.5-11.55-3.7-15.41-1.18-.79.51-.72,2.08.14,3.46a4.16,4.16,0,0,0,1.39,1.41,1.42,1.42,0,0,0,1.49.12c3.1-2,7.5-1.87,12.38.95s9.27,7.74,12.34,13.33a4.18,4.18,0,0,0,1.49,1.6,1.54,1.54,0,0,0,1.39.19c.86-.39.94-1.87.16-3.29-3.83-7-9.3-13.08-15.37-16.58"/><path class="cls-62" d="M235.14,288.08c-3.61-2.08-6.87-2.23-9.2-.8-.81.5-.74,2.08.12,3.47a4.13,4.13,0,0,0,1.38,1.41,1.45,1.45,0,0,0,1.49.13c1.57-1,3.77-.86,6.2.55a17.65,17.65,0,0,1,6.18,6.6,4.22,4.22,0,0,0,1.48,1.58,1.53,1.53,0,0,0,1.38.19c.87-.39.94-1.9.14-3.32a26.16,26.16,0,0,0-9.17-9.81"/></g><path class="cls-63" d="M294.71,367.36,223.08,408.7a5.36,5.36,0,0,1-5.37,0l-116.62-67.8a5.36,5.36,0,0,1,0-9.27l65.59-37.85a5.36,5.36,0,0,1,5.37,0l122.65,71.31A1.32,1.32,0,0,1,294.71,367.36Z"/><path class="cls-64" d="M197.91,369.54l-19.18,11.15a1.44,1.44,0,0,1-1.44,0l-31.34-18.1a1.44,1.44,0,0,1,0-2.49l17.57-10.21a1.44,1.44,0,0,1,1.44,0l33,19A.35.35,0,0,1,197.91,369.54Z"/><path class="cls-65" d="M168.8,303l4.24,2.44a2,2,0,0,0,1.82,0l2-1.25a.58.58,0,0,0,0-1.08l-4.24-2.43a2,2,0,0,0-1.81,0l-2,1.24A.57.57,0,0,0,168.8,303Z"/><path class="cls-65" d="M176.27,307.28l4.28,2.46a2,2,0,0,0,1.83,0l2-1.26a.58.58,0,0,0,0-1.09l-4.28-2.45a2,2,0,0,0-1.82,0l-2,1.25A.58.58,0,0,0,176.27,307.28Z"/><path class="cls-65" d="M183.82,311.62l4.32,2.49a2,2,0,0,0,1.84,0l2-1.27a.59.59,0,0,0,0-1.1l-4.33-2.48a2,2,0,0,0-1.83,0l-2,1.26A.58.58,0,0,0,183.82,311.62Z"/><path class="cls-65" d="M191.44,316l4.37,2.51a2,2,0,0,0,1.85,0l2-1.28c.5-.31.48-.81,0-1.11l-4.37-2.5a2,2,0,0,0-1.85,0l-2,1.27A.59.59,0,0,0,191.44,316Z"/><path class="cls-65" d="M199.14,320.43l4.41,2.54a2,2,0,0,0,1.87,0l2-1.29c.5-.31.48-.82-.05-1.12L203,318a2,2,0,0,0-1.86,0l-2,1.28C198.59,319.63,198.61,320.12,199.14,320.43Z"/><path class="cls-65" d="M206.91,324.9l4.45,2.56a2,2,0,0,0,1.88,0l2.05-1.3c.5-.32.48-.82-.06-1.13l-4.46-2.55a2,2,0,0,0-1.87,0l-2,1.29C206.36,324.09,206.38,324.59,206.91,324.9Z"/><path class="cls-65" d="M214.77,329.42l4.5,2.59a2,2,0,0,0,1.89,0l2.06-1.31c.5-.32.47-.83-.07-1.14L218.64,327a2,2,0,0,0-1.88,0l-2.05,1.3C214.2,328.6,214.23,329.11,214.77,329.42Z"/><path class="cls-65" d="M222.7,334l4.55,2.61a2,2,0,0,0,1.9,0l2.06-1.32c.5-.32.47-.84-.07-1.15l-4.55-2.6a2,2,0,0,0-1.89,0l-2.06,1.31C222.13,333.16,222.16,333.67,222.7,334Z"/><path class="cls-65" d="M230.72,338.59l4.59,2.64a2,2,0,0,0,1.91,0l2.07-1.33c.51-.32.47-.84-.08-1.16l-4.6-2.63a2,2,0,0,0-1.91,0l-2.06,1.32C230.14,337.76,230.17,338.28,230.72,338.59Z"/><path class="cls-65" d="M238.82,343.25l4.64,2.67a2,2,0,0,0,1.93,0l2.07-1.34c.51-.33.47-.85-.09-1.17l-4.65-2.66a2,2,0,0,0-1.92,0l-2.07,1.33C238.23,342.41,238.27,342.93,238.82,343.25Z"/><path class="cls-65" d="M247,348l4.69,2.7a2,2,0,0,0,1.94,0l2.07-1.35c.51-.33.46-.86-.1-1.18l-4.7-2.69a2,2,0,0,0-1.93,0l-2.07,1.34C246.41,347.11,246.45,347.63,247,348Z"/><path class="cls-65" d="M255.28,352.71l4.74,2.73a2,2,0,0,0,2,0l2.08-1.36c.51-.33.46-.87-.11-1.19l-4.74-2.71a2,2,0,0,0-1.94,0l-2.08,1.35C254.67,351.86,254.71,352.39,255.28,352.71Z"/><path class="cls-65" d="M263.64,357.52l4.79,2.75a2.06,2.06,0,0,0,2,0l2.08-1.37c.51-.33.46-.87-.12-1.2l-4.79-2.74a2.05,2.05,0,0,0-2,0l-2.08,1.36C263,356.65,263.07,357.19,263.64,357.52Z"/><path class="cls-65" d="M280.86,362.56,276,359.79a2.06,2.06,0,0,0-2,0L272,361.17c-.51.34-.46.88.12,1.21l4.84,2.78a2.07,2.07,0,0,0,2,0l2.09-1.38C281.5,363.43,281.44,362.89,280.86,362.56Z"/><path class="cls-65" d="M162.18,307.32l3.89,2.26a2.44,2.44,0,0,0,2.28,0l3.68-2.27a.72.72,0,0,0,0-1.35l-3.9-2.24a2.44,2.44,0,0,0-2.26,0L162.17,306A.72.72,0,0,0,162.18,307.32Z"/><path class="cls-65" d="M179.22,310.08l-3.93-2.26a2.45,2.45,0,0,0-2.28,0l-3.68,2.27a.73.73,0,0,0,0,1.36l3.93,2.28a2.45,2.45,0,0,0,2.29,0l3.69-2.28A.73.73,0,0,0,179.22,310.08Z"/><path class="cls-65" d="M186.51,314.27l-4-2.29a2.46,2.46,0,0,0-2.29,0l-3.69,2.29a.74.74,0,0,0,0,1.37l4,2.3a2.46,2.46,0,0,0,2.3,0l3.7-2.3A.74.74,0,0,0,186.51,314.27Z"/><path class="cls-65" d="M166.09,317.87l3.94,2.31a2.45,2.45,0,0,0,2.3,0l3.71-2.3a.74.74,0,0,0,0-1.38l-3.94-2.29a2.44,2.44,0,0,0-2.29,0l-3.71,2.29A.74.74,0,0,0,166.09,317.87Z"/><path class="cls-65" d="M155.3,311.54l7.24,4.24a2.44,2.44,0,0,0,2.28,0l3.7-2.29a.73.73,0,0,0,0-1.37l-7.25-4.22a2.43,2.43,0,0,0-2.27,0l-3.69,2.26A.73.73,0,0,0,155.3,311.54Z"/><path class="cls-65" d="M183.31,320.7l-4-2.31a2.45,2.45,0,0,0-2.3,0l-3.71,2.31a.74.74,0,0,0,0,1.39l4,2.33a2.46,2.46,0,0,0,2.31,0l3.72-2.32A.75.75,0,0,0,183.31,320.7Z"/><path class="cls-65" d="M190.67,325l-4-2.34a2.46,2.46,0,0,0-2.32,0L180.61,325a.75.75,0,0,0,0,1.4l4,2.35a2.46,2.46,0,0,0,2.33,0l3.73-2.34A.75.75,0,0,0,190.67,325Z"/><path class="cls-65" d="M198.11,329.31,194,326.95a2.47,2.47,0,0,0-2.33,0L188,329.31a.76.76,0,0,0,0,1.41l4.05,2.38a2.47,2.47,0,0,0,2.34,0l3.74-2.35A.76.76,0,0,0,198.11,329.31Z"/><path class="cls-65" d="M205.62,333.67l-4.1-2.38a2.48,2.48,0,0,0-2.34,0l-3.74,2.36a.77.77,0,0,0,.05,1.42l4.09,2.4a2.48,2.48,0,0,0,2.36,0l3.75-2.37C206.31,334.7,206.28,334.06,205.62,333.67Z"/><path class="cls-65" d="M213.2,338.08l-4.14-2.41a2.49,2.49,0,0,0-2.36,0L203,338.07a.77.77,0,0,0,.06,1.44l4.13,2.42a2.49,2.49,0,0,0,2.37,0l3.76-2.39C213.91,339.11,213.87,338.47,213.2,338.08Z"/><path class="cls-65" d="M220.86,342.53l-4.18-2.43a2.5,2.5,0,0,0-2.37,0l-3.76,2.39c-.64.41-.61,1.05.07,1.45l4.17,2.45a2.5,2.5,0,0,0,2.39,0l3.76-2.41C221.58,343.58,221.54,342.93,220.86,342.53Z"/><path class="cls-65" d="M228.59,347l-4.22-2.45a2.51,2.51,0,0,0-2.39,0L218.22,347c-.64.41-.6,1.06.08,1.46l4.22,2.47a2.51,2.51,0,0,0,2.4,0l3.77-2.42C229.32,348.08,229.28,347.43,228.59,347Z"/><path class="cls-65" d="M226.05,353l4.26,2.5a2.52,2.52,0,0,0,2.42,0l3.78-2.44c.64-.41.59-1.07-.1-1.48l-4.27-2.48a2.52,2.52,0,0,0-2.4,0L226,351.53C225.33,351.94,225.36,352.6,226.05,353Z"/><path class="cls-65" d="M244.41,357.65c.64-.42.59-1.08-.11-1.49l-4.31-2.5a2.53,2.53,0,0,0-2.42,0l-3.78,2.45c-.64.41-.6,1.08.1,1.49l4.3,2.52a2.53,2.53,0,0,0,2.43,0Z"/><path class="cls-65" d="M252.39,362.29c.64-.42.59-1.09-.12-1.5l-4.35-2.53a2.54,2.54,0,0,0-2.43,0l-3.79,2.46c-.64.42-.59,1.09.11,1.5l4.34,2.55a2.54,2.54,0,0,0,2.45,0Z"/><path class="cls-65" d="M249.8,366.92l4.39,2.57a2.55,2.55,0,0,0,2.46,0l3.81-2.5c.64-.42.58-1.1-.13-1.52l-4.4-2.56a2.55,2.55,0,0,0-2.45,0l-3.8,2.48C249,365.83,249.09,366.51,249.8,366.92Z"/><path class="cls-65" d="M161,321.86a.74.74,0,0,0,0,1.39l3.94,2.33a2.44,2.44,0,0,0,2.31,0l3.73-2.32a.75.75,0,0,0,0-1.39L167,319.53a2.44,2.44,0,0,0-2.29,0Z"/><path class="cls-65" d="M148.38,315.78l9.17,5.42a2.43,2.43,0,0,0,2.29,0l3.72-2.3a.74.74,0,0,0,0-1.38l-9.18-5.39a2.42,2.42,0,0,0-2.27,0l-3.71,2.28A.73.73,0,0,0,148.38,315.78Z"/><path class="cls-65" d="M168.22,326.13a.75.75,0,0,0,0,1.4l4,2.35a2.45,2.45,0,0,0,2.32,0l3.74-2.34a.75.75,0,0,0,0-1.4l-4-2.34a2.45,2.45,0,0,0-2.31,0Z"/><path class="cls-65" d="M175.55,331.86l4,2.38a2.46,2.46,0,0,0,2.33,0l3.75-2.35a.76.76,0,0,0,0-1.42l-4-2.36a2.46,2.46,0,0,0-2.32,0l-3.74,2.34A.76.76,0,0,0,175.55,331.86Z"/><path class="cls-65" d="M182.94,336.23l4.05,2.4a2.47,2.47,0,0,0,2.35,0l3.76-2.37a.77.77,0,0,0,0-1.43L189,332.43a2.47,2.47,0,0,0-2.34,0l-3.75,2.35A.77.77,0,0,0,182.94,336.23Z"/><path class="cls-65" d="M190.4,340.64l4.09,2.42a2.48,2.48,0,0,0,2.36,0l3.77-2.39a.78.78,0,0,0-.06-1.44l-4.1-2.41a2.48,2.48,0,0,0-2.35,0l-3.76,2.37A.77.77,0,0,0,190.4,340.64Z"/><path class="cls-65" d="M197.93,345.1l4.13,2.45a2.49,2.49,0,0,0,2.38,0l3.78-2.41c.64-.41.61-1.06-.07-1.45L204,341.24a2.49,2.49,0,0,0-2.36,0l-3.77,2.39A.78.78,0,0,0,197.93,345.1Z"/><path class="cls-65" d="M205.54,349.6l4.18,2.47a2.5,2.5,0,0,0,2.39,0l3.78-2.42c.64-.41.61-1.07-.08-1.46l-4.18-2.45a2.5,2.5,0,0,0-2.38,0l-3.78,2.41A.79.79,0,0,0,205.54,349.6Z"/><path class="cls-65" d="M213.22,354.15l4.22,2.5a2.51,2.51,0,0,0,2.41,0l3.79-2.44c.64-.41.6-1.07-.09-1.48l-4.23-2.48a2.51,2.51,0,0,0-2.39,0l-3.79,2.43C212.51,353.08,212.54,353.74,213.22,354.15Z"/><path class="cls-65" d="M221,358.74l4.26,2.52a2.52,2.52,0,0,0,2.42,0l3.8-2.46c.64-.42.6-1.08-.1-1.49l-4.27-2.5a2.52,2.52,0,0,0-2.41,0l-3.79,2.44C220.26,357.67,220.29,358.33,221,358.74Z"/><path class="cls-65" d="M228.82,363.38l4.3,2.55a2.53,2.53,0,0,0,2.44,0l3.81-2.48c.64-.42.6-1.09-.11-1.5L235,359.4a2.53,2.53,0,0,0-2.42,0l-3.8,2.46C228.08,362.29,228.12,363,228.82,363.38Z"/><path class="cls-65" d="M243.54,370.63l3.82-2.5c.64-.42.59-1.1-.12-1.52l-4.35-2.56a2.54,2.54,0,0,0-2.44,0l-3.81,2.48c-.65.42-.6,1.1.1,1.51l4.35,2.57A2.54,2.54,0,0,0,243.54,370.63Z"/><path class="cls-65" d="M261.35,374.89,251,368.81a2.55,2.55,0,0,0-2.46,0l-3.82,2.5c-.65.42-.6,1.11.11,1.53L255.17,379a2.56,2.56,0,0,0,2.48,0l3.83-2.53C262.13,376,262.07,375.31,261.35,374.89Z"/><path class="cls-65" d="M157.78,329.81l3.95,2.36a2.44,2.44,0,0,0,2.32,0l3.76-2.34a.76.76,0,0,0,0-1.41l-4-2.34a2.44,2.44,0,0,0-2.3,0l-3.75,2.32A.75.75,0,0,0,157.78,329.81Z"/><path class="cls-65" d="M144.53,323.33l-4.64-2.77a1.59,1.59,0,0,0-1.5,0L132.89,324a.49.49,0,0,0,0,.91l4.63,2.79a1.59,1.59,0,0,0,1.51,0l5.52-3.4A.49.49,0,0,0,144.53,323.33Z"/><path class="cls-65" d="M151.7,327.63l-4.68-2.8a1.59,1.59,0,0,0-1.51,0l-5.52,3.4a.5.5,0,0,0,0,.92l4.67,2.82a1.59,1.59,0,0,0,1.52,0l5.53-3.42A.49.49,0,0,0,151.7,327.63Z"/><path class="cls-65" d="M158.95,332l-4.73-2.83a1.6,1.6,0,0,0-1.52,0l-5.53,3.43a.5.5,0,0,0,0,.93l4.72,2.85a1.6,1.6,0,0,0,1.52,0l5.54-3.45A.5.5,0,0,0,158.95,332Z"/><path class="cls-65" d="M167.94,337.34l-6.45-3.86a1.6,1.6,0,0,0-1.53,0l-5.55,3.45a.5.5,0,0,0,0,.94l6.44,3.89a1.61,1.61,0,0,0,1.54,0l5.56-3.48A.51.51,0,0,0,167.94,337.34Z"/><path class="cls-65" d="M215.4,365.74l-6.87-4.11a1.64,1.64,0,0,0-1.58,0l-5.63,3.62a.54.54,0,0,0,0,1l6.85,4.14a1.65,1.65,0,0,0,1.6,0l5.64-3.65C215.88,366.45,215.85,366,215.4,365.74Z"/><path class="cls-65" d="M223.32,370.47l-5.06-3a1.65,1.65,0,0,0-1.6,0L211,371.1a.54.54,0,0,0,0,1l5.05,3.05a1.65,1.65,0,0,0,1.61,0l5.65-3.67C223.8,371.2,223.78,370.75,223.32,370.47Z"/><path class="cls-65" d="M227.74,377.63l-5.11-3.07a1.66,1.66,0,0,0-1.61,0L219,375.9c-.43.28-.41.73.05,1l5.1,3.08a1.66,1.66,0,0,0,1.62,0l2.06-1.35C228.23,378.36,228.2,377.91,227.74,377.63Z"/><path class="cls-65" d="M243.9,387.35l-5.21-3.13a1.67,1.67,0,0,0-1.63,0L235,385.57c-.43.28-.4.74.07,1l5.21,3.15a1.67,1.67,0,0,0,1.64,0l2.07-1.37C244.41,388.09,244.37,387.63,243.9,387.35Z"/><path class="cls-65" d="M235.78,382.46l-5.16-3.1a1.66,1.66,0,0,0-1.62,0l-2.06,1.35c-.43.28-.4.74.06,1l5.16,3.11a1.67,1.67,0,0,0,1.63,0l2.06-1.36C236.28,383.2,236.25,382.75,235.78,382.46Z"/><path class="cls-65" d="M231,379.1l5.16,3.1a1.67,1.67,0,0,0,1.63,0l2.06-1.35c.43-.28.4-.74-.07-1l-5.17-3.09a1.67,1.67,0,0,0-1.62,0L231,378.09C230.52,378.37,230.55,378.82,231,379.1Z"/><path class="cls-65" d="M205.48,359.8l-35-20.94a1.61,1.61,0,0,0-1.54,0l-5.56,3.48a.51.51,0,0,0,0,.95l34.92,21.1a1.64,1.64,0,0,0,1.58,0l5.63-3.61A.53.53,0,0,0,205.48,359.8Z"/><path class="cls-65" d="M141.43,320,154,327.56a2.43,2.43,0,0,0,2.3,0l3.75-2.32a.75.75,0,0,0,0-1.39l-12.61-7.47a2.42,2.42,0,0,0-2.27,0l-3.73,2.29A.74.74,0,0,0,141.43,320Z"/><path class="cls-65" d="M165,334.15l4,2.38a2.45,2.45,0,0,0,2.33,0l3.77-2.36a.76.76,0,0,0,0-1.42l-4-2.37a2.45,2.45,0,0,0-2.32,0L165,332.74A.76.76,0,0,0,165,334.15Z"/><path class="cls-65" d="M172.38,338.54l4,2.41a2.46,2.46,0,0,0,2.34,0l3.77-2.37a.77.77,0,0,0,0-1.43l-4-2.39a2.46,2.46,0,0,0-2.33,0l-3.77,2.36A.77.77,0,0,0,172.38,338.54Z"/><path class="cls-65" d="M179.79,343l4.07,2.43a2.47,2.47,0,0,0,2.36,0L190,343a.78.78,0,0,0,0-1.44l-4.07-2.41a2.47,2.47,0,0,0-2.35,0l-3.77,2.38A.78.78,0,0,0,179.79,343Z"/><path class="cls-65" d="M187.27,347.43l4.11,2.45a2.48,2.48,0,0,0,2.37,0l3.79-2.41a.79.79,0,0,0-.05-1.45l-4.11-2.44a2.48,2.48,0,0,0-2.36,0L187.23,346A.78.78,0,0,0,187.27,347.43Z"/><path class="cls-65" d="M194.82,351.94l4.15,2.48a2.49,2.49,0,0,0,2.39,0l3.8-2.43a.79.79,0,0,0-.06-1.47L200.94,348a2.49,2.49,0,0,0-2.38,0l-3.79,2.41A.79.79,0,0,0,194.82,351.94Z"/><path class="cls-65" d="M202.45,356.5l4.19,2.5a2.5,2.5,0,0,0,2.4,0l3.81-2.45c.64-.41.61-1.08-.07-1.48l-4.2-2.49a2.5,2.5,0,0,0-2.39,0l-3.8,2.43A.8.8,0,0,0,202.45,356.5Z"/><path class="cls-65" d="M210.16,361.1l4.23,2.53a2.51,2.51,0,0,0,2.42,0l3.82-2.46c.64-.42.61-1.08-.08-1.49l-4.24-2.51a2.51,2.51,0,0,0-2.41,0l-3.81,2.45C209.45,360,209.48,360.7,210.16,361.1Z"/><path class="cls-65" d="M217.95,365.76l4.27,2.55a2.52,2.52,0,0,0,2.43,0l3.83-2.48c.65-.42.6-1.09-.09-1.51l-4.28-2.54a2.52,2.52,0,0,0-2.42,0l-3.82,2.47C217.22,364.67,217.26,365.34,217.95,365.76Z"/><path class="cls-65" d="M236.31,369,232,366.44a2.53,2.53,0,0,0-2.44,0l-3.83,2.49c-.65.42-.61,1.1.09,1.52l4.32,2.58a2.53,2.53,0,0,0,2.45,0l3.83-2.5C237.06,370.1,237,369.42,236.31,369Z"/><path class="cls-65" d="M254.39,379.71l-14.44-8.56a2.54,2.54,0,0,0-2.45,0l-3.84,2.5c-.65.42-.61,1.11.1,1.53l14.42,8.61a2.55,2.55,0,0,0,2.48,0l3.85-2.55C255.17,380.83,255.11,380.14,254.39,379.71Z"/><path class="cls-65" d="M268.45,370.2,264,367.61a2.56,2.56,0,0,0-2.46,0l-3.81,2.5c-.64.42-.59,1.11.13,1.53l4.43,2.6a2.56,2.56,0,0,0,2.48,0l3.81-2.52C269.24,371.3,269.18,370.62,268.45,370.2Z"/><path class="cls-65" d="M193.87,318.51l-4-2.31a2.47,2.47,0,0,0-2.31,0l-3.7,2.3a.74.74,0,0,0,0,1.39l4,2.32a2.47,2.47,0,0,0,2.32,0l3.71-2.32A.74.74,0,0,0,193.87,318.51Z"/><path class="cls-65" d="M201.3,322.79l-4-2.33a2.48,2.48,0,0,0-2.32,0l-3.71,2.32a.75.75,0,0,0,0,1.4l4,2.35a2.48,2.48,0,0,0,2.33,0l3.72-2.33C202,323.8,202,323.17,201.3,322.79Z"/><path class="cls-65" d="M208.8,327.11l-4.09-2.35a2.49,2.49,0,0,0-2.33,0l-3.72,2.34a.76.76,0,0,0,.05,1.41l4.08,2.37a2.49,2.49,0,0,0,2.35,0l3.72-2.35C209.5,328.13,209.47,327.49,208.8,327.11Z"/><path class="cls-65" d="M216.38,331.47l-4.13-2.38a2.49,2.49,0,0,0-2.35,0l-3.73,2.35c-.63.4-.6,1,.06,1.42l4.12,2.39a2.5,2.5,0,0,0,2.36,0l3.73-2.37C217.08,332.5,217.05,331.86,216.38,331.47Z"/><path class="cls-65" d="M224,335.88l-4.17-2.4a2.51,2.51,0,0,0-2.36,0l-3.73,2.37c-.63.4-.6,1,.07,1.43l4.16,2.42a2.51,2.51,0,0,0,2.37,0l3.74-2.39C224.75,336.91,224.71,336.27,224,335.88Z"/><path class="cls-65" d="M231.76,340.33l-4.21-2.42a2.51,2.51,0,0,0-2.38,0l-3.74,2.39c-.63.4-.6,1.05.08,1.45l4.2,2.44a2.52,2.52,0,0,0,2.39,0l3.75-2.4C232.49,341.37,232.44,340.72,231.76,340.33Z"/><path class="cls-65" d="M239.56,344.82l-4.25-2.45a2.52,2.52,0,0,0-2.39,0l-3.75,2.41c-.64.41-.59,1.06.09,1.46l4.25,2.46a2.53,2.53,0,0,0,2.4,0l3.76-2.42C240.3,345.88,240.25,345.22,239.56,344.82Z"/><path class="cls-65" d="M247.45,349.36l-4.3-2.47a2.53,2.53,0,0,0-2.41,0L237,349.33c-.64.41-.59,1.07.1,1.47l4.29,2.49a2.54,2.54,0,0,0,2.42,0l3.77-2.44C248.2,350.42,248.14,349.76,247.45,349.36Z"/><path class="cls-65" d="M249.32,357.91a2.55,2.55,0,0,0,2.43,0l3.77-2.46c.64-.42.58-1.08-.13-1.49l-4.34-2.5a2.55,2.55,0,0,0-2.42,0l-3.77,2.44c-.64.41-.59,1.08.11,1.49Z"/><path class="cls-65" d="M263.45,358.58l-4.38-2.52a2.56,2.56,0,0,0-2.44,0l-3.77,2.46c-.64.42-.59,1.09.12,1.5l4.38,2.54a2.56,2.56,0,0,0,2.45,0l3.78-2.48C264.22,359.66,264.16,359,263.45,358.58Z"/><path class="cls-65" d="M276.19,365.91l-9.31-5.36a1.64,1.64,0,0,0-1.56,0l-4.62,3c-.41.27-.37.7.08,1l9.29,5.4a1.64,1.64,0,0,0,1.58,0l4.64-3.06C276.69,366.61,276.65,366.18,276.19,365.91Z"/><polygon class="cls-66" points="227.18 242.73 175.54 277.54 175.5 291.43 217.76 315.83 280.51 273.52 227.18 242.73"/><polygon class="cls-67" points="245.72 331.97 291.59 301.05 291.66 280 228.94 322.28 245.72 331.97"/><path class="cls-68" d="M702,733.6,594.5,671.52l-11.67,6.78a3.62,3.62,0,0,0,0,6.26l98.88,57.09a6.45,6.45,0,0,0,6.47,0l13.84-8"/><path class="cls-69" d="M702.1,578.34,602.43,520.8c-2.79-1.61-9.31.72-9.31,4.6l2.62,144.25a4.2,4.2,0,0,0,2.1,3.65l97.87,60c5.36,3,8.49-1.41,8.09-6.1L704.2,582A4.2,4.2,0,0,0,702.1,578.34Z"/><path class="cls-70" d="M699,580.25,599.3,522.7a4.2,4.2,0,0,0-6.29,3.62l-.4,145.23a4.2,4.2,0,0,0,2.1,3.65l99.67,57.54a4.2,4.2,0,0,0,6.29-3.62l.4-145.23A4.2,4.2,0,0,0,699,580.25Z"/><polygon class="cls-71" points="695.71 585.85 598.35 529.64 597.96 661.13 695.32 717.34 695.71 585.85"/><g class="cls-45"><path class="cls-72" d="M645,640.08c-3.93-2.27-7.13-.45-7.14,4.07a15.64,15.64,0,0,0,7.1,12.29c3.93,2.27,7.13.45,7.14-4.07a15.64,15.64,0,0,0-7.1-12.29"/><path class="cls-73" d="M645.17,590.67c-14.53-8.39-27.65-8.81-36.85-2.71-1.33.89-1.25,3.52.21,5.87a7,7,0,0,0,2.34,2.38,2.4,2.4,0,0,0,2.55.19c7.91-5.27,19.21-4.91,31.73,2.32s23.78,19.9,31.64,34.27a7.12,7.12,0,0,0,2.55,2.75,2.6,2.6,0,0,0,2.35.32c1.46-.66,1.56-3.19.24-5.61-9.13-16.68-22.21-31.39-36.74-39.78"/><path class="cls-74" d="M645.12,607.31c-10.27-5.93-19.55-6.26-26.08-2-1.33.87-1.21,3.52.23,5.85a7,7,0,0,0,2.35,2.39,2.41,2.41,0,0,0,2.53.2c5.25-3.42,12.7-3.16,21,1.61s15.68,13.1,20.89,22.56a7.07,7.07,0,0,0,2.52,2.71,2.61,2.61,0,0,0,2.35.32c1.45-.66,1.59-3.16.27-5.57-6.49-11.77-15.74-22.14-26-28.07"/><path class="cls-75" d="M645.07,623.47c-6.1-3.52-11.63-3.78-15.57-1.35-1.37.84-1.26,3.52.2,5.87a7,7,0,0,0,2.34,2.38,2.46,2.46,0,0,0,2.52.22c2.66-1.63,6.38-1.45,10.49.92a29.88,29.88,0,0,1,10.46,11.17,7.15,7.15,0,0,0,2.51,2.68,2.59,2.59,0,0,0,2.34.32c1.47-.66,1.59-3.21.23-5.62-3.91-7-9.42-13.08-15.53-16.6"/></g><path class="cls-65" d="M641.29,689.62c-2.11-1.22-3.83-.24-3.84,2.19a8.41,8.41,0,0,0,3.82,6.61c2.12,1.22,3.84.24,3.84-2.19a8.42,8.42,0,0,0-3.82-6.61"/><polygon class="cls-76" points="695.71 585.85 623.1 543.93 598.25 563.69 597.96 661.13 632.84 681.27 695.57 631.41 695.71 585.85"/><polygon class="cls-77" points="667.11 701.06 695.43 678.55 695.5 655.3 650.21 691.3 667.11 701.06"/><g class="cls-53"><g class="cls-7"><path class="cls-78" d="M289.43,662.46l-169.1-97.63L101.19,576a5.16,5.16,0,0,0,0,8.92l157.17,90.74a8.4,8.4,0,0,0,8.42,0l22.64-13.15"/></g></g><path class="cls-79" d="M144.53,497.38l-8.93-5.16c-9.37-5.41-26.9.94-26.93,11.73l9.76,44.15c0,10.77,7.55,23.9,16.92,29.31l8.93,5.16.24-85.19"/><polyline class="cls-80" points="262.85 565.69 144.53 497.38 134.35 502.77 144.29 582.57 262.61 650.88 262.85 565.69"/><path class="cls-81" d="M271.78,570.85l-8.93-5.16-10.19,5.39,9.94,79.8L264.86,663c10.53,5,23.86-3.46,23.73-16.69l.13-46.17c0-10.79-7.55-23.9-16.94-29.32"/><path class="cls-82" d="M134.35,502.77l-8.93-5.16c-9.37-5.41-17-1.08-17,9.71l-.13,46.17c0,10.77,7.55,23.9,16.92,29.31l8.93,5.16.24-85.19"/><path class="cls-83" d="M261.6,576.23l-8.93-5.16-.24,85.19,8.93,5.16c9.39,5.42,17,1.07,17.05-9.7l.13-46.17c0-10.79-7.55-23.9-16.94-29.32"/><path class="cls-84" d="M261.6,576.52l-8.93-5.16-.24,85.19,8.93,5.16c9.39,5.42,17,1.07,17.05-9.7l.13-46.17c0-10.79-7.55-23.9-16.94-29.32"/><polyline class="cls-43" points="252.66 571.08 134.35 502.77 134.11 587.96 252.42 656.27 252.66 571.08"/><polygon class="cls-85" points="247.45 573.47 139.54 511.16 139.32 585.57 247.23 647.87 247.45 573.47"/><g class="cls-45"><path class="cls-86" d="M191.4,589.53c-2.64-1.52-4.78-.3-4.79,2.73a10.48,10.48,0,0,0,4.76,8.24c2.64,1.52,4.78.3,4.79-2.73a10.48,10.48,0,0,0-4.76-8.24"/><path class="cls-87" d="M191.5,556.41c-9.74-5.62-18.54-5.91-24.7-1.82-.89.6-.84,2.36.14,3.94a4.7,4.7,0,0,0,1.57,1.6,1.61,1.61,0,0,0,1.71.13c5.3-3.53,12.88-3.29,21.27,1.55s15.94,13.34,21.21,23a4.78,4.78,0,0,0,1.71,1.84,1.74,1.74,0,0,0,1.57.22c1-.44,1-2.14.16-3.76-6.12-11.18-14.89-21-24.63-26.67"/><path class="cls-88" d="M191.47,567.57c-6.89-4-13.11-4.2-17.49-1.34-.89.58-.81,2.36.16,3.92a4.72,4.72,0,0,0,1.57,1.6,1.61,1.61,0,0,0,1.69.14c3.52-2.29,8.52-2.12,14,1.08s10.52,8.78,14,15.12a4.74,4.74,0,0,0,1.69,1.82,1.75,1.75,0,0,0,1.58.22c1-.44,1.06-2.12.18-3.73-4.35-7.89-10.55-14.85-17.44-18.82"/><path class="cls-89" d="M191.44,578.4c-4.09-2.36-7.8-2.53-10.44-.9-.92.56-.84,2.36.13,3.94A4.69,4.69,0,0,0,182.7,583a1.65,1.65,0,0,0,1.69.15c1.78-1.09,4.28-1,7,.62a20,20,0,0,1,7,7.49,4.8,4.8,0,0,0,1.69,1.8,1.74,1.74,0,0,0,1.57.21c1-.44,1.07-2.15.16-3.77a29.69,29.69,0,0,0-10.41-11.13"/></g><polygon class="cls-90" points="183.39 536.48 139.38 566.04 139.32 585.57 183.92 611.32 243.6 571.24 183.39 536.48"/><polygon class="cls-91" points="212.09 627.59 247.36 603.89 247.42 583.23 195.58 618.05 212.09 627.59"/><path class="cls-43" d="M265.51,590.45c-1.7-1-3.08-.19-3.09,1.76a6.76,6.76,0,0,0,3.07,5.32c1.7,1,3.08.19,3.09-1.76a6.77,6.77,0,0,0-3.07-5.32"/><path class="cls-43" d="M265.47,605.7c-1.7-1-3.08-.19-3.09,1.76a6.77,6.77,0,0,0,3.07,5.32c1.7,1,3.08.19,3.09-1.76a6.77,6.77,0,0,0-3.07-5.32"/><path class="cls-43" d="M272.12,601.9c-1.7-1-3.08-.19-3.09,1.76A6.77,6.77,0,0,0,272.1,609c1.7,1,3.08.19,3.09-1.76a6.77,6.77,0,0,0-3.07-5.32"/><path class="cls-43" d="M258.85,594.24c-1.7-1-3.08-.19-3.09,1.76a6.76,6.76,0,0,0,3.07,5.31c1.7,1,3.08.19,3.09-1.76a6.77,6.77,0,0,0-3.07-5.32"/><path class="cls-43" d="M265.52,621.5c-2.92-1.69-5.3-.33-5.31,3a11.63,11.63,0,0,0,5.28,9.14c2.92,1.69,5.3.33,5.31-3a11.64,11.64,0,0,0-5.28-9.14"/><path class="cls-43" d="M257.41,632.41c-1.4-.81-2.53-.16-2.53,1.44a5.55,5.55,0,0,0,2.52,4.36c1.39.8,2.53.16,2.54-1.44a5.55,5.55,0,0,0-2.52-4.36"/><path class="cls-43" d="M121.78,530.43c-1.7-1-3.08-.19-3.09,1.76a6.76,6.76,0,0,0,3.07,5.32c1.7,1,3.08.19,3.09-1.76a6.77,6.77,0,0,0-3.07-5.32"/><path class="cls-43" d="M121.73,545.68c-1.7-1-3.08-.19-3.09,1.76a6.77,6.77,0,0,0,3.07,5.32c1.7,1,3.08.19,3.09-1.76a6.77,6.77,0,0,0-3.07-5.32"/><path class="cls-43" d="M128.39,541.88c-1.7-1-3.08-.19-3.09,1.76a6.77,6.77,0,0,0,3.07,5.32c1.7,1,3.08.19,3.09-1.76a6.77,6.77,0,0,0-3.07-5.32"/><path class="cls-43" d="M115.12,534.22c-1.7-1-3.08-.19-3.09,1.76a6.76,6.76,0,0,0,3.07,5.31c1.7,1,3.08.19,3.09-1.76a6.77,6.77,0,0,0-3.07-5.32"/><path class="cls-43" d="M121.78,508.94c-2.93-1.69-5.3-.33-5.31,3a11.64,11.64,0,0,0,5.28,9.14c2.92,1.68,5.3.33,5.31-3a11.63,11.63,0,0,0-5.28-9.14"/><path class="cls-43" d="M128.39,558.27c-1.4-.81-2.53-.16-2.54,1.44a5.55,5.55,0,0,0,2.52,4.36c1.39.8,2.53.16,2.53-1.44a5.55,5.55,0,0,0-2.52-4.36"/><path class="cls-92" d="M406.07,605.57,370.48,585c-5.13-3-13-.88-13,5L360.86,694c0,5.89,4.14,13.09,9.27,16.05l33.67,23c5.13,3,11.54-1.34,11.25-7.73l.29-103.65c0-5.91-4.14-13.09-9.27-16.05"/><path class="cls-93" d="M402.22,607.11l-35.59-20.55c-5.13-3-9.31-.59-9.33,5.32L357,695.53c0,5.89,4.14,13.09,9.27,16.05l35.59,20.55c5.13,3,9.31.57,9.33-5.32l.29-103.65c0-5.91-4.14-13.09-9.27-16.05"/><path class="cls-94" d="M401.58,610.16l-1.85-1.07c-.65-.37-1.19-.06-1.19.7v.57c0,1.09-.77,1.53-1.71,1L372,597a3.76,3.76,0,0,1-1.69-3v-.8a2.21,2.21,0,0,0-1-1.74l-2-1.17c-4.17-2.41-7.57-.47-7.58,4.34l-.29,100.81a16.61,16.61,0,0,0,7.53,13l34.34,19.83c4.17,2.41,7.57.47,7.58-4.32l.29-100.81a16.61,16.61,0,0,0-7.53-13.06"/><g class="cls-45"><path class="cls-95" d="M384.21,669.72c-2-1.14-3.59-.23-3.6,2a7.87,7.87,0,0,0,3.57,6.19c2,1.14,3.59.23,3.6-2a7.87,7.87,0,0,0-3.57-6.19"/><path class="cls-96" d="M384.28,644.85c-7.32-4.22-13.92-4.44-18.55-1.37-.67.45-.63,1.77.1,3a3.53,3.53,0,0,0,1.18,1.2,1.21,1.21,0,0,0,1.28.1c4-2.65,9.67-2.47,16,1.17s12,10,15.93,17.25a3.59,3.59,0,0,0,1.28,1.38,1.31,1.31,0,0,0,1.18.16c.74-.33.79-1.61.12-2.83-4.6-8.4-11.18-15.8-18.5-20"/><path class="cls-97" d="M384.25,653.23c-5.17-3-9.84-3.15-13.13-1-.67.44-.61,1.77.12,2.95a3.54,3.54,0,0,0,1.18,1.2,1.21,1.21,0,0,0,1.27.1c2.64-1.72,6.4-1.59,10.55.81a29.74,29.74,0,0,1,10.52,11.36A3.56,3.56,0,0,0,396,670a1.31,1.31,0,0,0,1.18.16c.73-.33.8-1.59.13-2.8-3.27-5.93-7.93-11.15-13.1-14.13"/><path class="cls-98" d="M384.23,661.37c-3.07-1.77-5.86-1.9-7.84-.68-.69.42-.63,1.77.1,3a3.52,3.52,0,0,0,1.18,1.2,1.24,1.24,0,0,0,1.27.11c1.34-.82,3.21-.73,5.28.47a15,15,0,0,1,5.27,5.62,3.6,3.6,0,0,0,1.27,1.35,1.3,1.3,0,0,0,1.18.16c.74-.33.8-1.62.12-2.83a22.3,22.3,0,0,0-7.82-8.36"/></g><path class="cls-99" d="M409.11,623.22a16.61,16.61,0,0,0-7.53-13.06l-1.85-1.07c-.65-.37-1.19-.06-1.19.7v.57c0,1.09-.77,1.53-1.71,1l-18.68-10.78-18.54,13.1-.23,81.81a13.92,13.92,0,0,0,1.13,5.19L409,666.42Z"/><polygon class="cls-100" points="386.99 720.11 408.88 704.64 408.94 683.79 370.78 710.75 386.99 720.11"/><g class="cls-7"><path class="cls-1" d="M644.35,532.7l1.07-.62a1.86,1.86,0,0,0,.78-1.71l-1.07.62A1.86,1.86,0,0,1,644.35,532.7Z"/><g class="cls-101"><g class="cls-7"><path class="cls-1" d="M644.35,532.7l1.07-.62a1.86,1.86,0,0,0,.78-1.71l-1.07.62a1.86,1.86,0,0,1-.78,1.71Z"/></g></g><polygon class="cls-1" points="654.22 530.2 655.29 529.58 653.89 527.14 652.82 527.76 654.22 530.2"/><path class="cls-1" d="M652.82,527.76l1.07-.62a4.55,4.55,0,0,0-1.57-1.66,1.58,1.58,0,0,0-1.57-.16l-1.07.62a1.58,1.58,0,0,1,1.57.16A4.54,4.54,0,0,1,652.82,527.76Z"/><g class="cls-102"><g class="cls-7"><path class="cls-1" d="M652.82,527.76l1.07-.62a4.55,4.55,0,0,0-1.57-1.66,1.78,1.78,0,0,0-1.3-.27l-1.07.62a1.78,1.78,0,0,1,1.3.27,4.54,4.54,0,0,1,1.57,1.66Z"/><path class="cls-1" d="M649.94,525.83l1.07-.62a1.09,1.09,0,0,0-.28.11l-1.07.62a1.07,1.07,0,0,1,.28-.11Z"/></g></g><polygon class="cls-1" points="645.12 531 646.19 530.38 646.24 513.51 645.17 514.14 645.12 531"/><polygon class="cls-1" points="640.85 503.26 641.92 502.63 636.38 505.8 635.3 506.42 640.85 503.26"/><path class="cls-1" d="M642.42,503.42l1.07-.62a1.59,1.59,0,0,0-1.58-.16l-1.07.62A1.59,1.59,0,0,1,642.42,503.42Z"/><g class="cls-103"><g class="cls-7"><path class="cls-1" d="M642.42,503.42l1.07-.62a1.79,1.79,0,0,0-1.31-.27l-1.07.62a1.8,1.8,0,0,1,1.31.27Z"/><path class="cls-1" d="M641.12,503.15l1.07-.62a1.06,1.06,0,0,0-.27.11l-1.07.62a1.07,1.07,0,0,1,.27-.11Z"/></g></g><path class="cls-1" d="M642.54,503.49l1.07-.62-.12-.07-1.07.62Z"/><g class="cls-104"><g class="cls-7"><path class="cls-1" d="M642.54,503.49l1.07-.62-.12-.07-1.07.62.12.07Z"/></g></g><path class="cls-1" d="M649.72,518.39l1.07-.62c.87-.5.88-2.12,0-3.63l-1.07.62C650.6,516.27,650.59,517.89,649.72,518.39Z"/><g class="cls-105"><g class="cls-7"><path class="cls-1" d="M649.72,518.39l1.07-.62c.85-.49.88-2,.07-3.52l-1.07.62c.81,1.47.78,3-.07,3.52Z"/><path class="cls-1" d="M649.79,514.87l1.07-.62-.06-.11-1.07.62.06.11Z"/></g></g><path class="cls-1" d="M644.23,505.22l1.07-.62a4.57,4.57,0,0,0-1.58-1.66l-.11-.06-1.07.62.11.06A4.56,4.56,0,0,1,644.23,505.22Z"/><g class="cls-106"><g class="cls-7"><path class="cls-1" d="M644.23,505.22l1.07-.62a4.57,4.57,0,0,0-1.58-1.66l-.11-.06-1.07.62.11.06a4.56,4.56,0,0,1,1.58,1.66Z"/></g></g><path class="cls-107" d="M642.42,503.42a1.59,1.59,0,0,0-1.58-.16l-5.54,3.17c-.88.49-.88,2.12,0,3.63a4.52,4.52,0,0,0,1.57,1.66,1.59,1.59,0,0,0,1.58.16l1.41-.81,0,16.86a5.85,5.85,0,0,0,2.65,4.59c1.46.85,2.66.17,2.67-1.52l0-16.86,1.4,2.44a4.53,4.53,0,0,0,1.57,1.66,1.58,1.58,0,0,0,1.58.16c.87-.5.88-2.12,0-3.63l-5.5-9.55a4.56,4.56,0,0,0-1.58-1.66l-.11-.06Z"/><polygon class="cls-1" points="649.73 514.77 650.8 514.14 645.3 504.59 644.23 505.21 649.73 514.77"/><polygon class="cls-1" points="660.95 532.47 662.02 531.84 660.61 532.65 659.54 533.27 660.95 532.47"/><path class="cls-1" d="M664.09,537.92l1.07-.62c.87-.5.87-2.13,0-3.63A4.56,4.56,0,0,0,663.6,532a1.57,1.57,0,0,0-1.57-.16l-1.07.62a1.57,1.57,0,0,1,1.57.16,4.56,4.56,0,0,1,1.58,1.66C665,535.79,665,537.41,664.09,537.92Z"/><g class="cls-108"><g class="cls-7"><path class="cls-1" d="M664.09,537.92l1.07-.62c.85-.49.87-2,.07-3.52l-1.07.62c.8,1.47.78,3-.07,3.52Z"/><path class="cls-1" d="M664.16,534.4l1.07-.62-.06-.11A4.56,4.56,0,0,0,663.6,532a1.78,1.78,0,0,0-1.3-.27l-1.07.62a1.78,1.78,0,0,1,1.3.27,4.56,4.56,0,0,1,1.58,1.66l.06.11Z"/><path class="cls-1" d="M661.23,532.36l1.07-.62a1.07,1.07,0,0,0-.28.11l-1.07.62a1.1,1.1,0,0,1,.28-.11Z"/></g></g><polygon class="cls-1" points="659.54 533.27 660.61 532.65 660.66 515.79 659.58 516.41 659.54 533.27"/><path class="cls-1" d="M656.12,511l-1.07.62a1.87,1.87,0,0,1,1.89.18l1.07-.62A1.87,1.87,0,0,0,656.12,511Z"/><g class="cls-109"><g class="cls-7"><path class="cls-1" d="M656.93,511.81l1.07-.62a2.11,2.11,0,0,0-1.55-.32l-1.07.62a2.11,2.11,0,0,1,1.55.32Z"/><path class="cls-1" d="M655.38,511.49l1.07-.62a1.27,1.27,0,0,0-.34.14l-1.07.62a1.29,1.29,0,0,1,.34-.14Z"/></g></g><path class="cls-107" d="M656.93,511.81c-1.47-.85-2.66-.17-2.66,1.52l0,16.86-1.41-2.44a4.54,4.54,0,0,0-1.57-1.66,1.58,1.58,0,0,0-1.57-.16c-.88.49-.88,2.12,0,3.63l5.51,9.55a4.53,4.53,0,0,0,1.58,1.66l.11.06.12.07a1.6,1.6,0,0,0,1.58.16l5.55-3.16c.87-.5.87-2.13,0-3.63a4.56,4.56,0,0,0-1.58-1.66,1.57,1.57,0,0,0-1.57-.16l-1.41.81,0-16.86A5.85,5.85,0,0,0,656.93,511.81Z"/><path class="cls-1" d="M659.58,516.41l1.07-.62a5.85,5.85,0,0,0-2.65-4.6l-1.07.62A5.85,5.85,0,0,1,659.58,516.41Z"/><g class="cls-110"><g class="cls-7"><path class="cls-1" d="M659.58,516.41l1.07-.62a5.33,5.33,0,0,0-.7-2.49l-1.07.62a5.32,5.32,0,0,1,.7,2.49Z"/><path class="cls-1" d="M658.88,513.92l1.07-.62a5.5,5.5,0,0,0-1.95-2.11l-1.07.62a5.49,5.49,0,0,1,1.95,2.11Z"/></g></g></g><path class="cls-1" d="M618.15,431.64l17.28-10c-3.48-1.81-6.71-2.38-9.43-1.84a9.08,9.08,0,0,0-2.81,1.05l-17.28,10a9.08,9.08,0,0,1,2.81-1.05c2.72-.54,6,0,9.43,1.84Z"/><path class="cls-6" d="M673.93,455.74l11.94-7A70.71,70.71,0,0,0,675.66,429l-.76-1L663,435l.76,1a70.69,70.69,0,0,1,10.21,19.75Z"/><path class="cls-6" d="M663,435l11.95-7a61.94,61.94,0,0,0-8.38-9l-11.94,7a61.94,61.94,0,0,1,8.38,9Z"/><path class="cls-6" d="M654.58,426l11.94-7a46.94,46.94,0,0,0-7.37-5.32c-7.39-4.27-14.17-5-19.35-2.86a14.15,14.15,0,0,0-1.62.81l-11.94,7a14.07,14.07,0,0,1,1.62-.81c5.19-2.18,12-1.41,19.35,2.86a46.93,46.93,0,0,1,7.37,5.32Z"/><path class="cls-1" d="M701.38,517.18l11.95-7a7.89,7.89,0,0,0,3.14-3.55,14.09,14.09,0,0,0,1.19-6,27.88,27.88,0,0,0-2.51-11,36,36,0,0,0-4.36-7.41l-11.95,7a36,36,0,0,1,4.36,7.41,27.87,27.87,0,0,1,2.51,11,14.08,14.08,0,0,1-1.19,6,7.88,7.88,0,0,1-3.14,3.55Z"/><path class="cls-1" d="M698.84,489.26l11.95-7a33.12,33.12,0,0,0-2.15-2.53q-1-1.06-2.07-2l-11.94,7c.71.62,1.4,1.29,2.07,2a32.85,32.85,0,0,1,2.15,2.53Z"/><path class="cls-1" d="M694.62,484.73l11.94-7a23.6,23.6,0,0,0-3.7-2.67q-.43-.25-.86-.46l-11.94,7,.86.46a23.64,23.64,0,0,1,3.7,2.67Z"/><path class="cls-107" d="M608.72,429.8c2.72-.54,6,0,9.43,1.84,1.25-7,4.77-11.77,9.72-13.85,5.19-2.18,12-1.41,19.35,2.86A55.92,55.92,0,0,1,663.72,436a70.69,70.69,0,0,1,10.21,19.75,13.75,13.75,0,0,1,3.48,1.46,22.24,22.24,0,0,1,5,4.05,30.76,30.76,0,0,1,5.64,8.62,24.15,24.15,0,0,1,2.17,9.54,14.77,14.77,0,0,1-.16,2.19l.86.46a25.63,25.63,0,0,1,5.77,4.68,35.43,35.43,0,0,1,6.51,9.94,27.87,27.87,0,0,1,2.51,11,14.08,14.08,0,0,1-1.19,6,7.49,7.49,0,0,1-5.39,4.4c-2.37.47-5.23-.1-8.3-1.88l-71.88-41.5a32,32,0,0,1-7.19-5.83,44.17,44.17,0,0,1-8.12-12.4,34.72,34.72,0,0,1-3.13-13.71,17.55,17.55,0,0,1,1.48-7.43A9.34,9.34,0,0,1,608.72,429.8Z"/><path class="cls-1" d="M690.07,481.59l11.94-7a14.85,14.85,0,0,0,.16-2.19,24.15,24.15,0,0,0-2.17-9.54,31.23,31.23,0,0,0-3.78-6.43l-11.94,7a31.28,31.28,0,0,1,3.78,6.43,24.15,24.15,0,0,1,2.17,9.54,14.77,14.77,0,0,1-.16,2.19Z"/><path class="cls-1" d="M684.27,463.44l11.94-7a28.56,28.56,0,0,0-1.86-2.2c-.58-.61-1.18-1.19-1.79-1.73l-11.94,7c.62.54,1.22,1.12,1.79,1.73s1.27,1.43,1.86,2.2Z"/><path class="cls-1" d="M680.62,459.51l11.94-7a20.49,20.49,0,0,0-3.21-2.32,13.77,13.77,0,0,0-3.48-1.46l-11.94,7a13.75,13.75,0,0,1,3.48,1.46,20.44,20.44,0,0,1,3.21,2.32Z"/><g class="cls-7"><g class="cls-7"><path class="cls-2" d="M13,359l-2.41,83.54a3.06,3.06,0,0,0,1.8,2.51,9.61,9.61,0,0,0,8.74,0,3.07,3.07,0,0,0,1.82-2.54L20.37,359a1.86,1.86,0,0,1-1.09,1.53,5.79,5.79,0,0,1-5.24,0A1.86,1.86,0,0,1,13,359Z"/><g class="cls-111"><g class="cls-7"><path class="cls-2" d="M13,359l-2.41,83.54a2.51,2.51,0,0,0,.8,1.75L13.44,360A1.5,1.5,0,0,1,13,359Z"/><path class="cls-2" d="M13.44,360l-2.09,84.24a4.57,4.57,0,0,0,1,.76,9.64,9.64,0,0,0,6.64.8L18,361a5.83,5.83,0,0,1-4-.47,2.6,2.6,0,0,1-.6-.46Z"/><path class="cls-3" d="M18,361l1,84.86a7.4,7.4,0,0,0,2.1-.8,3.07,3.07,0,0,0,1.82-2.54L20.37,359a1.86,1.86,0,0,1-1.09,1.53A4.64,4.64,0,0,1,18,361Z"/></g></g></g><path class="cls-107" d="M14.06,357.44c-1.46.84-1.46,2.2,0,3a5.79,5.79,0,0,0,5.24,0c1.45-.84,1.46-2.2,0-3A5.81,5.81,0,0,0,14.06,357.44Z"/></g><g class="cls-7"><g class="cls-7"><path class="cls-2" d="M69.71,330.35,67.31,413.9a3.06,3.06,0,0,0,1.8,2.51,9.61,9.61,0,0,0,8.74,0,3.07,3.07,0,0,0,1.82-2.54l-2.53-83.53A1.86,1.86,0,0,1,76,331.87a5.79,5.79,0,0,1-5.24,0A1.86,1.86,0,0,1,69.71,330.35Z"/><g class="cls-112"><g class="cls-7"><path class="cls-2" d="M69.71,330.35,67.31,413.9a2.51,2.51,0,0,0,.8,1.75l2.09-84.24a1.5,1.5,0,0,1-.48-1.06Z"/><path class="cls-2" d="M70.19,331.41l-2.09,84.24a4.61,4.61,0,0,0,1,.76,9.64,9.64,0,0,0,6.64.8l-1-84.86a5.83,5.83,0,0,1-4-.47,2.62,2.62,0,0,1-.6-.46Z"/><path class="cls-3" d="M74.77,332.34l1,84.86a7.38,7.38,0,0,0,2.1-.8,3.07,3.07,0,0,0,1.82-2.54l-2.53-83.53A1.86,1.86,0,0,1,76,331.87a4.64,4.64,0,0,1-1.26.47Z"/></g></g></g><path class="cls-107" d="M70.81,328.82c-1.46.84-1.46,2.2,0,3a5.79,5.79,0,0,0,5.24,0c1.45-.84,1.46-2.2,0-3A5.8,5.8,0,0,0,70.81,328.82Z"/></g><g class="cls-7"><path class="cls-3" d="M136.94,429.35q0,7.55,0,15.1c0,1.5-1,3-3,4.14l0-15.1C136,432.34,136.94,430.84,136.94,429.35Z"/><g class="cls-113"><g class="cls-7"><path class="cls-3" d="M136.94,429.35l0,15.1a3.77,3.77,0,0,1-.39,1.61l0-15.1a3.61,3.61,0,0,0,.39-1.61Z"/><path class="cls-3" d="M136.55,431l0,15.1a6.3,6.3,0,0,1-2.57,2.53l0-15.1a6.28,6.28,0,0,0,2.57-2.53Z"/></g></g><path class="cls-2" d="M5,460.22q0-7.54,0-15.1c0,1.52,1,3,3,4.2l0,15.1C6,463.27,5,461.75,5,460.22Z"/><g class="cls-114"><g class="cls-7"><path class="cls-2" d="M8.06,449.33l0,15.1c-2-1.16-3-2.68-3-4.2l0-15.1c0,1.52,1,3,3,4.2Z"/></g></g><polygon class="cls-3" points="133.99 433.49 133.94 448.59 64.69 488.83 64.73 473.73 133.99 433.49"/><path class="cls-115" d="M74.55,475.64c0-1.43-1-2-2.23-1.35A5,5,0,0,0,70,478.14c0,1.44,1,2,2.22,1.34A5,5,0,0,0,74.55,475.64Z"/><path class="cls-115" d="M82.44,470.78c0-1.43-1-2-2.24-1.35a5,5,0,0,0-2.31,3.85c0,1.44,1,2,2.22,1.34A4.94,4.94,0,0,0,82.44,470.78Z"/><path class="cls-115" d="M89.54,466.53c0-1.43-1-2-2.23-1.35A5,5,0,0,0,85,469c0,1.44,1,2,2.22,1.34A4.94,4.94,0,0,0,89.54,466.53Z"/><polygon class="cls-2" points="50.33 473.73 50.29 488.83 8.02 464.43 8.06 449.32 50.33 473.73"/><path class="cls-2" d="M64.74,473.73l0,15.1a15.89,15.89,0,0,1-14.4,0l0-15.1A15.88,15.88,0,0,0,64.74,473.73Z"/><g class="cls-116"><path class="cls-117" d="M64.74,473.73l0,15.1a15.07,15.07,0,0,1-8.36,1.68l0-15.1a15.16,15.16,0,0,0,8.37-1.68Z"/><path class="cls-117" d="M56.37,475.42l0,15.1a14,14,0,0,1-6-1.68l0-15.1a14.11,14.11,0,0,0,6,1.69Z"/></g><path class="cls-107" d="M133.94,425.15c4,2.3,4,6,0,8.34L64.74,473.73a15.88,15.88,0,0,1-14.4,0L8.06,449.33c-4-2.3-4-6-.05-8.34l69.25-40.24a15.86,15.86,0,0,1,14.4,0Z"/><g class="cls-118"><path class="cls-119" d="M96.58,418.68a7.19,7.19,0,0,1-3.54.84c-12.85,0-24.93,2.86-34,8.1s-14.07,12.22-14,19.64c0,1.59-2.22,2.89-5,2.89s-5-1.28-5-2.87c0-9,6-17.4,17-23.74s25.58-9.82,41.11-9.79c2.76,0,5,1.3,5,2.89A2.5,2.5,0,0,1,96.58,418.68Z"/><path class="cls-120" d="M73.74,447.58a7.18,7.18,0,0,1-3.49.84c-2.76,0-5-1.27-5-2.86-.05-3.85,2.51-7.47,7.23-10.19s11-4.2,17.65-4.17c2.76,0,5,1.31,5,2.9S92.78,437,90,437a21.16,21.16,0,0,0-10.51,2.48c-2.81,1.62-4.33,3.77-4.3,6.07A2.48,2.48,0,0,1,73.74,447.58Z"/><path class="cls-121" d="M95.47,427.35a7.21,7.21,0,0,1-3.55.84c-8.54,0-16.57,1.89-22.6,5.37s-9.34,8.12-9.3,13c0,1.59-2.21,2.89-5,2.89s-5-1.28-5-2.87c0-6.48,4.3-12.57,12.23-17.15s18.48-7.09,29.7-7.06c2.76,0,5,1.3,5,2.9A2.5,2.5,0,0,1,95.47,427.35Z"/><path class="cls-122" d="M96.41,441.06a15.61,15.61,0,0,0-14.12,0c-3.9,2.25-3.9,5.9,0,8.15a15.6,15.6,0,0,0,14.12,0C100.31,447,100.31,443.31,96.41,441.06Z"/></g></g><g class="cls-7"><polygon class="cls-123" points="494.09 675.78 479.04 667.03 479.09 683.38 494.14 692.13 494.09 675.78"/><g class="cls-7"><path class="cls-4" d="M445.56,712.58l15,8.75c3.42,2,8.84,1.42,14.92-2.09,10.29-5.94,18.64-18.1,18.61-27.11l-15-8.75c0,9-8.32,21.17-18.61,27.11C454.39,714,449,714.56,445.56,712.58Z"/><g class="cls-124"><g class="cls-7"><path class="cls-4" d="M494.14,692.13l-15-8.75q0,.63-.05,1.27l15,8.75q.05-.65.05-1.27Z"/><path class="cls-4" d="M494.09,693.4l-15-8.75a19.91,19.91,0,0,1-.68,3.72l15,8.75a19.88,19.88,0,0,0,.68-3.72Z"/><path class="cls-4" d="M493.41,697.12l-15-8.75c-1.86,6.73-7.13,14.17-13.72,19.3l15,8.75c6.59-5.13,11.86-12.57,13.72-19.3Z"/><path class="cls-123" d="M479.69,716.42l-15-8.75a36.59,36.59,0,0,1-4.17,2.82q-1.14.66-2.26,1.18l15,8.75q1.11-.52,2.26-1.18a36.59,36.59,0,0,0,4.17-2.82Z"/><path class="cls-123" d="M473.27,720.42l-15-8.75a21.47,21.47,0,0,1-5.9,1.88l15,8.75a21.46,21.46,0,0,0,5.9-1.88Z"/><path class="cls-123" d="M467.37,722.3l-15-8.75a10.31,10.31,0,0,1-6.77-1l15,8.75a10.31,10.31,0,0,0,6.77,1Z"/></g></g></g><g class="cls-7"><g class="cls-125"><path class="cls-123" d="M490.31,668.13l-15-8.75a7.63,7.63,0,0,1,3.63,5.66l15,8.75a7.63,7.63,0,0,0-3.63-5.66Z"/><path class="cls-123" d="M493.93,673.78l-15-8.75a12.69,12.69,0,0,1,.16,2l15,8.75a12.66,12.66,0,0,0-.16-2Z"/></g></g><g class="cls-7"><path class="cls-4" d="M444.49,714.4l15,8.75c-2.64-1.53-4.22-4.46-4.23-8.6l-15-8.75C440.27,709.95,441.85,712.87,444.49,714.4Z"/><g class="cls-126"><path class="cls-6" d="M455.31,714.55l-15-8.75a14.33,14.33,0,0,0,.18,2.26l15,8.75a14.34,14.34,0,0,1-.18-2.26Z"/><path class="cls-4" d="M455.49,716.8l-15-8.75a8.56,8.56,0,0,0,4.05,6.35l15,8.75a8.56,8.56,0,0,1-4.05-6.35Z"/></g></g><polygon class="cls-107" points="456.82 713.67 441.77 704.93 440.26 705.8 455.31 714.54 456.82 713.67"/><g class="cls-7"><g class="cls-127"><path class="cls-6" d="M491.38,666.3l-15-8.75a11.17,11.17,0,0,0-7.34-1.07l15,8.75a11.17,11.17,0,0,1,7.34,1.07Z"/><path class="cls-6" d="M484,665.22l-15-8.75a22.81,22.81,0,0,0-6.27,2l15,8.75a22.8,22.8,0,0,1,6.27-2Z"/><path class="cls-6" d="M477.77,667.22l-15-8.75q-1.17.55-2.39,1.25l15,8.75q1.21-.7,2.39-1.25Z"/></g></g><g class="cls-7"><g class="cls-128"><g class="cls-7"><path class="cls-6" d="M475.38,668.47l-15-8.75a38.7,38.7,0,0,0-4.41,3l15,8.75a38.73,38.73,0,0,1,4.41-3Z"/><path class="cls-107" d="M471,671.45l-15-8.75c-7.13,5.55-12.84,13.68-14.89,21.1l15,8.75c2.05-7.42,7.76-15.55,14.89-21.1Z"/><path class="cls-6" d="M456.08,692.56l-15-8.75a22.49,22.49,0,0,0-.76,4.2l15,8.75a22.5,22.5,0,0,1,.76-4.2Z"/><path class="cls-6" d="M455.32,696.75l-15-8.75q-.06.73-.06,1.44l15,8.75q0-.71.06-1.44Z"/></g></g></g><path class="cls-2" d="M475.38,668.47c-11.12,6.42-20.15,19.75-20.12,29.72l1.51-.87c0-9,8.32-21.17,18.61-27.11s18.68-3.44,18.7,5.56l0,16.35c0,9-8.32,21.17-18.61,27.11s-18.68,3.44-18.7-5.56l-1.51.87c0,10,9.1,12.85,20.22,6.43s20.15-19.76,20.12-29.72l0-16.35C495.58,664.93,486.51,662,475.38,668.47Z"/></g><g class="cls-7"><path class="cls-2" d="M459,718.87l6-3.5a3,3,0,0,0,1.26-2.76l-6,3.5A3,3,0,0,1,459,718.87Z"/><g class="cls-129"><g class="cls-7"><path class="cls-2" d="M459,718.87l6-3.5a3,3,0,0,0,1.26-2.76l-6,3.5a3,3,0,0,1-1.26,2.76Z"/></g></g><path class="cls-6" d="M440,672.05l-6,3.5a3,3,0,0,1,3.07.29l6-3.5A3,3,0,0,0,440,672.05Z"/><g class="cls-130"><g class="cls-7"><path class="cls-6" d="M437,675.85l6-3.5a4.48,4.48,0,0,0-1.3-.52l-6,3.5a4.48,4.48,0,0,1,1.3.52Z"/><path class="cls-6" d="M435.74,675.33l6-3.5a2.48,2.48,0,0,0-1.69.18l-6,3.5a2.47,2.47,0,0,1,1.69-.18Z"/><path class="cls-6" d="M434.05,675.51l6-3.5-.08,0-6,3.5.08,0Z"/></g></g><polygon class="cls-2" points="460.29 716.11 466.31 712.61 466.37 690.77 460.35 694.27 460.29 716.11"/><polygon class="cls-6" points="456.05 686.82 462.07 683.32 443.06 672.35 437.05 675.85 456.05 686.82"/><path class="cls-2" d="M460.35,694.27l6-3.5a9.51,9.51,0,0,0-4.3-7.45l-6,3.5A9.51,9.51,0,0,1,460.35,694.27Z"/><g class="cls-131"><g class="cls-7"><path class="cls-2" d="M460.35,694.27l6-3.5a8.13,8.13,0,0,0-.76-3.26l-6,3.5a8.13,8.13,0,0,1,.76,3.26Z"/><path class="cls-2" d="M459.59,691l6-3.5a10.52,10.52,0,0,0-1.46-2.37l-6,3.5a10.5,10.5,0,0,1,1.46,2.37Z"/><path class="cls-6" d="M458.13,688.64l6-3.5a7.82,7.82,0,0,0-2.08-1.82l-6,3.5a7.82,7.82,0,0,1,2.08,1.82Z"/></g></g><path class="cls-107" d="M437,675.85c-2.37-1.37-4.32-.26-4.33,2.46l-.06,21.84a9.51,9.51,0,0,0,4.3,7.45l19,11c2.37,1.37,4.32.26,4.33-2.47l.06-21.84a9.51,9.51,0,0,0-4.3-7.45Z"/><path class="cls-132" d="M433.93,700.16a8.19,8.19,0,0,0,3.66,6.33l19,11a2.71,2.71,0,0,0,1.28.41.93.93,0,0,0,.88-.56,2.85,2.85,0,0,0,.24-1.22l.06-21.84a8.18,8.18,0,0,0-3.66-6.33l-19-11a3.46,3.46,0,0,0-.89-.37,1.93,1.93,0,0,0-.4,0c-1,0-1.12,1.11-1.12,1.77Z"/></g><g class="cls-45"><path class="cls-133" d="M446.69,701.82c-.93-.54-1.68-.11-1.69,1a3.69,3.69,0,0,0,1.68,2.9c.93.54,1.68.11,1.69-1a3.69,3.69,0,0,0-1.68-2.9"/><path class="cls-134" d="M446.72,690.15c-3.43-2-6.53-2.08-8.7-.64-.31.21-.29.83,0,1.39a1.66,1.66,0,0,0,.55.56.57.57,0,0,0,.6,0c1.87-1.24,4.54-1.16,7.49.55a21,21,0,0,1,7.47,8.09,1.68,1.68,0,0,0,.6.65.61.61,0,0,0,.55.08c.35-.16.37-.75.06-1.33a24.45,24.45,0,0,0-8.67-9.39"/><path class="cls-135" d="M446.71,694.08c-2.42-1.4-4.62-1.48-6.16-.47-.31.21-.29.83.05,1.38a1.66,1.66,0,0,0,.55.56.57.57,0,0,0,.6,0c1.24-.81,3-.75,4.95.38a13.94,13.94,0,0,1,4.93,5.32,1.67,1.67,0,0,0,.59.64.62.62,0,0,0,.56.08c.34-.16.37-.75.06-1.31a17.36,17.36,0,0,0-6.14-6.63"/><path class="cls-136" d="M446.7,697.9a3.55,3.55,0,0,0-3.68-.32c-.32.2-.3.83,0,1.39a1.65,1.65,0,0,0,.55.56.58.58,0,0,0,.6.05,2.4,2.4,0,0,1,2.48.22,7.05,7.05,0,0,1,2.47,2.64,1.69,1.69,0,0,0,.59.63.61.61,0,0,0,.55.08c.35-.16.38-.76.06-1.33a10.45,10.45,0,0,0-3.66-3.92"/></g></g></g></g></svg>