<svg xmlns="http://www.w3.org/2000/svg" xmlns:xlink="http://www.w3.org/1999/xlink" viewBox="0 0 300 300"><defs><style>.cls-1{fill:none;}.cls-2{fill:url(#linear-gradient);}.cls-3{fill:url(#linear-gradient-2);}.cls-4{fill:url(#linear-gradient-3);}.cls-5{fill:url(#linear-gradient-4);}.cls-6{fill:url(#linear-gradient-5);}.cls-7{fill:url(#linear-gradient-6);}.cls-8{fill:url(#linear-gradient-7);}.cls-9{fill:url(#linear-gradient-8);}.cls-10{fill:url(#linear-gradient-9);}.cls-11{fill:url(#linear-gradient-10);}.cls-12{clip-path:url(#clip-path);}.cls-13{fill:url(#linear-gradient-11);}.cls-14{fill:url(#linear-gradient-12);}</style><linearGradient id="linear-gradient" x1="249.28" y1="63.55" x2="49.99" y2="63.55" gradientTransform="matrix(1, 0, 0, -1, 0, 302)" gradientUnits="userSpaceOnUse"><stop offset="0" stop-color="#5a41dc"/><stop offset="1" stop-color="#2d20ab"/></linearGradient><linearGradient id="linear-gradient-2" x1="249.28" y1="71.02" x2="49.99" y2="71.02" xlink:href="#linear-gradient"/><linearGradient id="linear-gradient-3" x1="249.28" y1="78.49" x2="49.99" y2="78.49" xlink:href="#linear-gradient"/><linearGradient id="linear-gradient-4" x1="49.99" y1="72.2" x2="249.28" y2="72.2" gradientTransform="matrix(1, 0, 0, -1, 0, 302)" gradientUnits="userSpaceOnUse"><stop offset="0" stop-color="#5740d9"/><stop offset="1" stop-color="#21c7f9"/></linearGradient><linearGradient id="linear-gradient-5" x1="49.99" y1="83.31" x2="249.28" y2="83.31" xlink:href="#linear-gradient-4"/><linearGradient id="linear-gradient-6" x1="49.99" y1="97.35" x2="249.28" y2="97.35" xlink:href="#linear-gradient-4"/><linearGradient id="linear-gradient-7" x1="249.28" y1="99.84" x2="49.99" y2="99.84" xlink:href="#linear-gradient"/><linearGradient id="linear-gradient-8" x1="249.28" y1="103.56" x2="49.99" y2="103.56" xlink:href="#linear-gradient"/><linearGradient id="linear-gradient-9" x1="249.28" y1="108.11" x2="49.99" y2="108.11" gradientTransform="matrix(1, 0, 0, -1, 0, 302)" gradientUnits="userSpaceOnUse"><stop offset="0" stop-color="#2d20ab"/><stop offset="1" stop-color="#5a41dc"/></linearGradient><linearGradient id="linear-gradient-10" x1="149.64" y1="150.5" x2="149.64" y2="65.72" xlink:href="#linear-gradient-4"/><clipPath id="clip-path"><ellipse class="cls-1" cx="149.64" cy="193.89" rx="77.06" ry="42.39"/></clipPath><linearGradient id="linear-gradient-11" x1="149.64" y1="56.8" x2="149.64" y2="141.58" xlink:href="#linear-gradient-4"/><linearGradient id="linear-gradient-12" x1="149.64" y1="293.38" x2="149.64" y2="65.73" gradientTransform="matrix(1, 0, 0, -1, 0, 302)" gradientUnits="userSpaceOnUse"><stop offset="0" stop-color="#5740d9" stop-opacity="0"/><stop offset="0.12" stop-color="#5642da" stop-opacity="0.02"/><stop offset="0.25" stop-color="#5349db" stop-opacity="0.07"/><stop offset="0.38" stop-color="#4f54de" stop-opacity="0.15"/><stop offset="0.51" stop-color="#4964e2" stop-opacity="0.27"/><stop offset="0.64" stop-color="#4078e6" stop-opacity="0.42"/><stop offset="0.77" stop-color="#3691ec" stop-opacity="0.6"/><stop offset="0.9" stop-color="#2baef3" stop-opacity="0.82"/><stop offset="1" stop-color="#21c7f9"/></linearGradient></defs><title>base</title><g id="Layer_2" data-name="Layer 2"><g id="Layer_1-2" data-name="Layer 1"><g id="Layer_21_copy" data-name="Layer 21 copy"><ellipse class="cls-2" cx="149.64" cy="238.45" rx="99.65" ry="54.81"/><rect class="cls-3" x="49.99" y="223.51" width="199.29" height="14.95"/><ellipse class="cls-4" cx="149.64" cy="223.51" rx="99.65" ry="54.81"/><ellipse class="cls-5" cx="149.64" cy="229.8" rx="99.65" ry="54.81"/><rect class="cls-6" x="49.99" y="204.65" width="199.29" height="28.06"/><ellipse class="cls-7" cx="149.64" cy="204.65" rx="99.65" ry="54.81"/><ellipse class="cls-8" cx="149.64" cy="202.16" rx="99.65" ry="54.81"/><rect class="cls-9" x="49.99" y="193.89" width="199.29" height="9.11"/><ellipse class="cls-10" cx="149.64" cy="193.89" rx="99.65" ry="54.81"/><ellipse class="cls-11" cx="149.64" cy="193.89" rx="77.06" ry="42.39"/><g class="cls-12"><ellipse class="cls-13" cx="149.64" cy="202.81" rx="77.06" ry="42.39"/></g><path class="cls-14" d="M226.7,193.89c0,23.41-34.5,42.38-77.06,42.38s-77.06-19-77.06-42.38L4.29,8.62H295Z"/></g><rect class="cls-1" width="300" height="300"/></g></g></svg>