<svg xmlns="http://www.w3.org/2000/svg" viewBox="0 0 300 300"><defs><style>.cls-1{fill:#fff;}.cls-2{fill:none;}</style></defs><title>stars</title><g id="Layer_2" data-name="Layer 2"><g id="Layer_1-2" data-name="Layer 1"><g id="Layer_24_copy" data-name="Layer 24 copy"><circle class="cls-1" cx="70.94" cy="45.08" r="2.69"/><circle class="cls-1" cx="52.05" cy="99.46" r="3.07"/><circle class="cls-1" cx="207.5" cy="43.82" r="2.47"/><circle class="cls-1" cx="240.04" cy="80.9" r="3.34"/><circle class="cls-1" cx="236.91" cy="119.46" r="1.28"/><circle class="cls-1" cx="241.77" cy="99.32" r="1.28"/><circle class="cls-1" cx="219.42" cy="56.87" r="1.28"/><circle class="cls-1" cx="241.42" cy="47.87" r="1.28"/><circle class="cls-1" cx="165.11" cy="40.44" r="0.55"/><circle class="cls-1" cx="149.21" cy="202.46" r="0.55"/><circle class="cls-1" cx="98.79" cy="210.35" r="0.55"/><circle class="cls-1" cx="128.11" cy="187.18" r="0.55"/><circle class="cls-1" cx="60.09" cy="157.3" r="0.55"/><circle class="cls-1" cx="71.35" cy="103.08" r="0.55"/><circle class="cls-1" cx="87.43" cy="198.28" r="0.55"/><circle class="cls-1" cx="69.59" cy="86.89" r="0.55"/><circle class="cls-1" cx="128.65" cy="218.47" r="0.55"/><circle class="cls-1" cx="73.68" cy="147.41" r="0.55"/><circle class="cls-1" cx="228.33" cy="136.82" r="0.55"/><circle class="cls-1" cx="211.97" cy="166.54" r="0.55"/><circle class="cls-1" cx="171.11" cy="164.57" r="0.55"/><circle class="cls-1" cx="122.24" cy="165.12" r="0.55"/><circle class="cls-1" cx="54.58" cy="63.96" r="0.55"/><circle class="cls-1" cx="60.28" cy="32.12" r="0.55"/><circle class="cls-1" cx="89.91" cy="45.01" r="0.55"/><circle class="cls-1" cx="175.24" cy="35.58" r="0.55"/><circle class="cls-1" cx="232.24" cy="26.58" r="0.55"/><circle class="cls-1" cx="168.21" cy="26.44" r="0.55"/><circle class="cls-1" cx="202.21" cy="26.44" r="0.55"/><circle class="cls-1" cx="119.34" cy="16.47" r="0.55"/><circle class="cls-1" cx="125.84" cy="33.21" r="0.55"/><circle class="cls-1" cx="189.99" cy="49.29" r="1.28"/><circle class="cls-1" cx="156.13" cy="221.97" r="1.28"/><circle class="cls-1" cx="63.35" cy="128.23" r="2.33"/><circle class="cls-1" cx="108.51" cy="42.38" r="2.33"/><circle class="cls-1" cx="223.2" cy="153.25" r="2.33"/><circle class="cls-1" cx="84.85" cy="177" r="2.33"/><circle class="cls-1" cx="77.43" cy="62.13" r="1.28"/><circle class="cls-1" cx="127.28" cy="40.94" r="1.28"/><circle class="cls-1" cx="256.49" cy="38.66" r="1.28"/><circle class="cls-1" cx="210.79" cy="197.25" r="1.28"/><circle class="cls-1" cx="94.63" cy="152.97" r="1.28"/><circle class="cls-1" cx="198.56" cy="181.57" r="1.28"/><circle class="cls-1" cx="107.23" cy="181.57" r="1.28"/><circle class="cls-1" cx="185.84" cy="206.45" r="3.91"/></g><rect class="cls-2" width="300" height="300"/></g></g></svg>